<?xml version="1.0" encoding="utf-8" standalone="no"?>
<!DOCTYPE svg PUBLIC "-//W3C//DTD SVG 1.1//EN"
  "http://www.w3.org/Graphics/SVG/1.1/DTD/svg11.dtd">
<svg xmlns:xlink="http://www.w3.org/1999/xlink" width="576pt" height="288pt" viewBox="0 0 576 288" xmlns="http://www.w3.org/2000/svg" version="1.1">
 <metadata>
  <rdf:RDF xmlns:dc="http://purl.org/dc/elements/1.1/" xmlns:cc="http://creativecommons.org/ns#" xmlns:rdf="http://www.w3.org/1999/02/22-rdf-syntax-ns#">
   <cc:Work>
    <dc:type rdf:resource="http://purl.org/dc/dcmitype/StillImage"/>
    <dc:date>2026-06-03T16:07:54.826539</dc:date>
    <dc:format>image/svg+xml</dc:format>
    <dc:creator>
     <cc:Agent>
      <dc:title>Matplotlib v3.10.9, https://matplotlib.org/</dc:title>
     </cc:Agent>
    </dc:creator>
   </cc:Work>
  </rdf:RDF>
 </metadata>
 <defs>
  <style type="text/css">*{stroke-linejoin: round; stroke-linecap: butt}</style>
 </defs>
 <g id="figure_1">
  <g id="patch_1">
   <path d="M 0 288 
L 576 288 
L 576 0 
L 0 0 
z
" style="fill: #ffffff"/>
  </g>
  <g id="axes_1">
   <g id="patch_2">
    <path d="M 129.13 243.16 
L 565.2 243.16 
L 565.2 28.32 
L 129.13 28.32 
z
" style="fill: #ffffff"/>
   </g>
   <g id="patch_3">
    <path d="M 129.13 233.394545 
L 275.468951 233.394545 
L 275.468951 217.450946 
L 129.13 217.450946 
z
" clip-path="url(#pd2ead66136)" style="fill: #4caf50; stroke: #000000; stroke-linejoin: miter"/>
   </g>
   <g id="patch_4">
    <path d="M 129.13 213.465046 
L 298.293137 213.465046 
L 298.293137 197.521447 
L 129.13 197.521447 
z
" clip-path="url(#pd2ead66136)" style="fill: #4caf50; stroke: #000000; stroke-linejoin: miter"/>
   </g>
   <g id="patch_5">
    <path d="M 129.13 193.535547 
L 306.309 193.535547 
L 306.309 177.591948 
L 129.13 177.591948 
z
" clip-path="url(#pd2ead66136)" style="fill: #4caf50; stroke: #000000; stroke-linejoin: miter"/>
   </g>
   <g id="patch_6">
    <path d="M 129.13 173.606048 
L 337.480411 173.606048 
L 337.480411 157.662449 
L 129.13 157.662449 
z
" clip-path="url(#pd2ead66136)" style="fill: #4caf50; stroke: #000000; stroke-linejoin: miter"/>
   </g>
   <g id="patch_7">
    <path d="M 129.13 153.676549 
L 347.045342 153.676549 
L 347.045342 137.73295 
L 129.13 137.73295 
z
" clip-path="url(#pd2ead66136)" style="fill: #4caf50; stroke: #000000; stroke-linejoin: miter"/>
   </g>
   <g id="patch_8">
    <path d="M 129.13 133.74705 
L 430.126734 133.74705 
L 430.126734 117.803451 
L 129.13 117.803451 
z
" clip-path="url(#pd2ead66136)" style="fill: #4caf50; stroke: #000000; stroke-linejoin: miter"/>
   </g>
   <g id="patch_9">
    <path d="M 129.13 113.817551 
L 434.941059 113.817551 
L 434.941059 97.873952 
L 129.13 97.873952 
z
" clip-path="url(#pd2ead66136)" style="fill: #4caf50; stroke: #000000; stroke-linejoin: miter"/>
   </g>
   <g id="patch_10">
    <path d="M 129.13 93.888052 
L 448.316501 93.888052 
L 448.316501 77.944453 
L 129.13 77.944453 
z
" clip-path="url(#pd2ead66136)" style="fill: #4caf50; stroke: #000000; stroke-linejoin: miter"/>
   </g>
   <g id="patch_11">
    <path d="M 129.13 73.958553 
L 499.090475 73.958553 
L 499.090475 58.014954 
L 129.13 58.014954 
z
" clip-path="url(#pd2ead66136)" style="fill: #4caf50; stroke: #000000; stroke-linejoin: miter"/>
   </g>
   <g id="patch_12">
    <path d="M 129.13 54.029054 
L 544.434762 54.029054 
L 544.434762 38.085455 
L 129.13 38.085455 
z
" clip-path="url(#pd2ead66136)" style="fill: #4caf50; stroke: #000000; stroke-linejoin: miter"/>
   </g>
   <g id="matplotlib.axis_1">
    <g id="xtick_1">
     <g id="line2d_1">
      <path d="M 129.13 243.16 
L 129.13 28.32 
" clip-path="url(#pd2ead66136)" style="fill: none; stroke: #b0b0b0; stroke-opacity: 0.3; stroke-width: 0.8; stroke-linecap: square"/>
     </g>
     <g id="line2d_2">
      <defs>
       <path id="mcbf825aa7b" d="M 0 0 
L 0 3.5 
" style="stroke: #000000; stroke-width: 0.8"/>
      </defs>
      <g>
       <use xlink:href="#mcbf825aa7b" x="129.13" y="243.16" style="stroke: #000000; stroke-width: 0.8"/>
      </g>
     </g>
     <g id="text_1">
      <!-- 0.0 -->
      <g transform="translate(121.178438 257.758438) scale(0.1 -0.1)">
       <defs>
        <path id="DejaVuSans-30" d="M 2034 4250 
Q 1547 4250 1301 3770 
Q 1056 3291 1056 2328 
Q 1056 1369 1301 889 
Q 1547 409 2034 409 
Q 2525 409 2770 889 
Q 3016 1369 3016 2328 
Q 3016 3291 2770 3770 
Q 2525 4250 2034 4250 
z
M 2034 4750 
Q 2819 4750 3233 4129 
Q 3647 3509 3647 2328 
Q 3647 1150 3233 529 
Q 2819 -91 2034 -91 
Q 1250 -91 836 529 
Q 422 1150 422 2328 
Q 422 3509 836 4129 
Q 1250 4750 2034 4750 
z
" transform="scale(0.015625)"/>
        <path id="DejaVuSans-2e" d="M 684 794 
L 1344 794 
L 1344 0 
L 684 0 
L 684 794 
z
" transform="scale(0.015625)"/>
       </defs>
       <use xlink:href="#DejaVuSans-30"/>
       <use xlink:href="#DejaVuSans-2e" transform="translate(63.623047 0)"/>
       <use xlink:href="#DejaVuSans-30" transform="translate(95.410156 0)"/>
      </g>
     </g>
    </g>
    <g id="xtick_2">
     <g id="line2d_3">
      <path d="M 181.000772 243.16 
L 181.000772 28.32 
" clip-path="url(#pd2ead66136)" style="fill: none; stroke: #b0b0b0; stroke-opacity: 0.3; stroke-width: 0.8; stroke-linecap: square"/>
     </g>
     <g id="line2d_4">
      <g>
       <use xlink:href="#mcbf825aa7b" x="181.000772" y="243.16" style="stroke: #000000; stroke-width: 0.8"/>
      </g>
     </g>
     <g id="text_2">
      <!-- 0.1 -->
      <g transform="translate(173.04921 257.758438) scale(0.1 -0.1)">
       <defs>
        <path id="DejaVuSans-31" d="M 794 531 
L 1825 531 
L 1825 4091 
L 703 3866 
L 703 4441 
L 1819 4666 
L 2450 4666 
L 2450 531 
L 3481 531 
L 3481 0 
L 794 0 
L 794 531 
z
" transform="scale(0.015625)"/>
       </defs>
       <use xlink:href="#DejaVuSans-30"/>
       <use xlink:href="#DejaVuSans-2e" transform="translate(63.623047 0)"/>
       <use xlink:href="#DejaVuSans-31" transform="translate(95.410156 0)"/>
      </g>
     </g>
    </g>
    <g id="xtick_3">
     <g id="line2d_5">
      <path d="M 232.871544 243.16 
L 232.871544 28.32 
" clip-path="url(#pd2ead66136)" style="fill: none; stroke: #b0b0b0; stroke-opacity: 0.3; stroke-width: 0.8; stroke-linecap: square"/>
     </g>
     <g id="line2d_6">
      <g>
       <use xlink:href="#mcbf825aa7b" x="232.871544" y="243.16" style="stroke: #000000; stroke-width: 0.8"/>
      </g>
     </g>
     <g id="text_3">
      <!-- 0.2 -->
      <g transform="translate(224.919982 257.758438) scale(0.1 -0.1)">
       <defs>
        <path id="DejaVuSans-32" d="M 1228 531 
L 3431 531 
L 3431 0 
L 469 0 
L 469 531 
Q 828 903 1448 1529 
Q 2069 2156 2228 2338 
Q 2531 2678 2651 2914 
Q 2772 3150 2772 3378 
Q 2772 3750 2511 3984 
Q 2250 4219 1831 4219 
Q 1534 4219 1204 4116 
Q 875 4013 500 3803 
L 500 4441 
Q 881 4594 1212 4672 
Q 1544 4750 1819 4750 
Q 2544 4750 2975 4387 
Q 3406 4025 3406 3419 
Q 3406 3131 3298 2873 
Q 3191 2616 2906 2266 
Q 2828 2175 2409 1742 
Q 1991 1309 1228 531 
z
" transform="scale(0.015625)"/>
       </defs>
       <use xlink:href="#DejaVuSans-30"/>
       <use xlink:href="#DejaVuSans-2e" transform="translate(63.623047 0)"/>
       <use xlink:href="#DejaVuSans-32" transform="translate(95.410156 0)"/>
      </g>
     </g>
    </g>
    <g id="xtick_4">
     <g id="line2d_7">
      <path d="M 284.742316 243.16 
L 284.742316 28.32 
" clip-path="url(#pd2ead66136)" style="fill: none; stroke: #b0b0b0; stroke-opacity: 0.3; stroke-width: 0.8; stroke-linecap: square"/>
     </g>
     <g id="line2d_8">
      <g>
       <use xlink:href="#mcbf825aa7b" x="284.742316" y="243.16" style="stroke: #000000; stroke-width: 0.8"/>
      </g>
     </g>
     <g id="text_4">
      <!-- 0.3 -->
      <g transform="translate(276.790754 257.758438) scale(0.1 -0.1)">
       <defs>
        <path id="DejaVuSans-33" d="M 2597 2516 
Q 3050 2419 3304 2112 
Q 3559 1806 3559 1356 
Q 3559 666 3084 287 
Q 2609 -91 1734 -91 
Q 1441 -91 1130 -33 
Q 819 25 488 141 
L 488 750 
Q 750 597 1062 519 
Q 1375 441 1716 441 
Q 2309 441 2620 675 
Q 2931 909 2931 1356 
Q 2931 1769 2642 2001 
Q 2353 2234 1838 2234 
L 1294 2234 
L 1294 2753 
L 1863 2753 
Q 2328 2753 2575 2939 
Q 2822 3125 2822 3475 
Q 2822 3834 2567 4026 
Q 2313 4219 1838 4219 
Q 1578 4219 1281 4162 
Q 984 4106 628 3988 
L 628 4550 
Q 988 4650 1302 4700 
Q 1616 4750 1894 4750 
Q 2613 4750 3031 4423 
Q 3450 4097 3450 3541 
Q 3450 3153 3228 2886 
Q 3006 2619 2597 2516 
z
" transform="scale(0.015625)"/>
       </defs>
       <use xlink:href="#DejaVuSans-30"/>
       <use xlink:href="#DejaVuSans-2e" transform="translate(63.623047 0)"/>
       <use xlink:href="#DejaVuSans-33" transform="translate(95.410156 0)"/>
      </g>
     </g>
    </g>
    <g id="xtick_5">
     <g id="line2d_9">
      <path d="M 336.613088 243.16 
L 336.613088 28.32 
" clip-path="url(#pd2ead66136)" style="fill: none; stroke: #b0b0b0; stroke-opacity: 0.3; stroke-width: 0.8; stroke-linecap: square"/>
     </g>
     <g id="line2d_10">
      <g>
       <use xlink:href="#mcbf825aa7b" x="336.613088" y="243.16" style="stroke: #000000; stroke-width: 0.8"/>
      </g>
     </g>
     <g id="text_5">
      <!-- 0.4 -->
      <g transform="translate(328.661526 257.758438) scale(0.1 -0.1)">
       <defs>
        <path id="DejaVuSans-34" d="M 2419 4116 
L 825 1625 
L 2419 1625 
L 2419 4116 
z
M 2253 4666 
L 3047 4666 
L 3047 1625 
L 3713 1625 
L 3713 1100 
L 3047 1100 
L 3047 0 
L 2419 0 
L 2419 1100 
L 313 1100 
L 313 1709 
L 2253 4666 
z
" transform="scale(0.015625)"/>
       </defs>
       <use xlink:href="#DejaVuSans-30"/>
       <use xlink:href="#DejaVuSans-2e" transform="translate(63.623047 0)"/>
       <use xlink:href="#DejaVuSans-34" transform="translate(95.410156 0)"/>
      </g>
     </g>
    </g>
    <g id="xtick_6">
     <g id="line2d_11">
      <path d="M 388.48386 243.16 
L 388.48386 28.32 
" clip-path="url(#pd2ead66136)" style="fill: none; stroke: #b0b0b0; stroke-opacity: 0.3; stroke-width: 0.8; stroke-linecap: square"/>
     </g>
     <g id="line2d_12">
      <g>
       <use xlink:href="#mcbf825aa7b" x="388.48386" y="243.16" style="stroke: #000000; stroke-width: 0.8"/>
      </g>
     </g>
     <g id="text_6">
      <!-- 0.5 -->
      <g transform="translate(380.532298 257.758438) scale(0.1 -0.1)">
       <defs>
        <path id="DejaVuSans-35" d="M 691 4666 
L 3169 4666 
L 3169 4134 
L 1269 4134 
L 1269 2991 
Q 1406 3038 1543 3061 
Q 1681 3084 1819 3084 
Q 2600 3084 3056 2656 
Q 3513 2228 3513 1497 
Q 3513 744 3044 326 
Q 2575 -91 1722 -91 
Q 1428 -91 1123 -41 
Q 819 9 494 109 
L 494 744 
Q 775 591 1075 516 
Q 1375 441 1709 441 
Q 2250 441 2565 725 
Q 2881 1009 2881 1497 
Q 2881 1984 2565 2268 
Q 2250 2553 1709 2553 
Q 1456 2553 1204 2497 
Q 953 2441 691 2322 
L 691 4666 
z
" transform="scale(0.015625)"/>
       </defs>
       <use xlink:href="#DejaVuSans-30"/>
       <use xlink:href="#DejaVuSans-2e" transform="translate(63.623047 0)"/>
       <use xlink:href="#DejaVuSans-35" transform="translate(95.410156 0)"/>
      </g>
     </g>
    </g>
    <g id="xtick_7">
     <g id="line2d_13">
      <path d="M 440.354632 243.16 
L 440.354632 28.32 
" clip-path="url(#pd2ead66136)" style="fill: none; stroke: #b0b0b0; stroke-opacity: 0.3; stroke-width: 0.8; stroke-linecap: square"/>
     </g>
     <g id="line2d_14">
      <g>
       <use xlink:href="#mcbf825aa7b" x="440.354632" y="243.16" style="stroke: #000000; stroke-width: 0.8"/>
      </g>
     </g>
     <g id="text_7">
      <!-- 0.6 -->
      <g transform="translate(432.40307 257.758438) scale(0.1 -0.1)">
       <defs>
        <path id="DejaVuSans-36" d="M 2113 2584 
Q 1688 2584 1439 2293 
Q 1191 2003 1191 1497 
Q 1191 994 1439 701 
Q 1688 409 2113 409 
Q 2538 409 2786 701 
Q 3034 994 3034 1497 
Q 3034 2003 2786 2293 
Q 2538 2584 2113 2584 
z
M 3366 4563 
L 3366 3988 
Q 3128 4100 2886 4159 
Q 2644 4219 2406 4219 
Q 1781 4219 1451 3797 
Q 1122 3375 1075 2522 
Q 1259 2794 1537 2939 
Q 1816 3084 2150 3084 
Q 2853 3084 3261 2657 
Q 3669 2231 3669 1497 
Q 3669 778 3244 343 
Q 2819 -91 2113 -91 
Q 1303 -91 875 529 
Q 447 1150 447 2328 
Q 447 3434 972 4092 
Q 1497 4750 2381 4750 
Q 2619 4750 2861 4703 
Q 3103 4656 3366 4563 
z
" transform="scale(0.015625)"/>
       </defs>
       <use xlink:href="#DejaVuSans-30"/>
       <use xlink:href="#DejaVuSans-2e" transform="translate(63.623047 0)"/>
       <use xlink:href="#DejaVuSans-36" transform="translate(95.410156 0)"/>
      </g>
     </g>
    </g>
    <g id="xtick_8">
     <g id="line2d_15">
      <path d="M 492.225404 243.16 
L 492.225404 28.32 
" clip-path="url(#pd2ead66136)" style="fill: none; stroke: #b0b0b0; stroke-opacity: 0.3; stroke-width: 0.8; stroke-linecap: square"/>
     </g>
     <g id="line2d_16">
      <g>
       <use xlink:href="#mcbf825aa7b" x="492.225404" y="243.16" style="stroke: #000000; stroke-width: 0.8"/>
      </g>
     </g>
     <g id="text_8">
      <!-- 0.7 -->
      <g transform="translate(484.273842 257.758438) scale(0.1 -0.1)">
       <defs>
        <path id="DejaVuSans-37" d="M 525 4666 
L 3525 4666 
L 3525 4397 
L 1831 0 
L 1172 0 
L 2766 4134 
L 525 4134 
L 525 4666 
z
" transform="scale(0.015625)"/>
       </defs>
       <use xlink:href="#DejaVuSans-30"/>
       <use xlink:href="#DejaVuSans-2e" transform="translate(63.623047 0)"/>
       <use xlink:href="#DejaVuSans-37" transform="translate(95.410156 0)"/>
      </g>
     </g>
    </g>
    <g id="xtick_9">
     <g id="line2d_17">
      <path d="M 544.096176 243.16 
L 544.096176 28.32 
" clip-path="url(#pd2ead66136)" style="fill: none; stroke: #b0b0b0; stroke-opacity: 0.3; stroke-width: 0.8; stroke-linecap: square"/>
     </g>
     <g id="line2d_18">
      <g>
       <use xlink:href="#mcbf825aa7b" x="544.096176" y="243.16" style="stroke: #000000; stroke-width: 0.8"/>
      </g>
     </g>
     <g id="text_9">
      <!-- 0.8 -->
      <g transform="translate(536.144614 257.758438) scale(0.1 -0.1)">
       <defs>
        <path id="DejaVuSans-38" d="M 2034 2216 
Q 1584 2216 1326 1975 
Q 1069 1734 1069 1313 
Q 1069 891 1326 650 
Q 1584 409 2034 409 
Q 2484 409 2743 651 
Q 3003 894 3003 1313 
Q 3003 1734 2745 1975 
Q 2488 2216 2034 2216 
z
M 1403 2484 
Q 997 2584 770 2862 
Q 544 3141 544 3541 
Q 544 4100 942 4425 
Q 1341 4750 2034 4750 
Q 2731 4750 3128 4425 
Q 3525 4100 3525 3541 
Q 3525 3141 3298 2862 
Q 3072 2584 2669 2484 
Q 3125 2378 3379 2068 
Q 3634 1759 3634 1313 
Q 3634 634 3220 271 
Q 2806 -91 2034 -91 
Q 1263 -91 848 271 
Q 434 634 434 1313 
Q 434 1759 690 2068 
Q 947 2378 1403 2484 
z
M 1172 3481 
Q 1172 3119 1398 2916 
Q 1625 2713 2034 2713 
Q 2441 2713 2670 2916 
Q 2900 3119 2900 3481 
Q 2900 3844 2670 4047 
Q 2441 4250 2034 4250 
Q 1625 4250 1398 4047 
Q 1172 3844 1172 3481 
z
" transform="scale(0.015625)"/>
       </defs>
       <use xlink:href="#DejaVuSans-30"/>
       <use xlink:href="#DejaVuSans-2e" transform="translate(63.623047 0)"/>
       <use xlink:href="#DejaVuSans-38" transform="translate(95.410156 0)"/>
      </g>
     </g>
    </g>
    <g id="text_10">
     <!-- Average Right SbL $\beta$ -->
     <g transform="translate(296.065 271.538125) scale(0.1 -0.1)">
      <defs>
       <path id="DejaVuSans-41" d="M 2188 4044 
L 1331 1722 
L 3047 1722 
L 2188 4044 
z
M 1831 4666 
L 2547 4666 
L 4325 0 
L 3669 0 
L 3244 1197 
L 1141 1197 
L 716 0 
L 50 0 
L 1831 4666 
z
" transform="scale(0.015625)"/>
       <path id="DejaVuSans-76" d="M 191 3500 
L 800 3500 
L 1894 563 
L 2988 3500 
L 3597 3500 
L 2284 0 
L 1503 0 
L 191 3500 
z
" transform="scale(0.015625)"/>
       <path id="DejaVuSans-65" d="M 3597 1894 
L 3597 1613 
L 953 1613 
Q 991 1019 1311 708 
Q 1631 397 2203 397 
Q 2534 397 2845 478 
Q 3156 559 3463 722 
L 3463 178 
Q 3153 47 2828 -22 
Q 2503 -91 2169 -91 
Q 1331 -91 842 396 
Q 353 884 353 1716 
Q 353 2575 817 3079 
Q 1281 3584 2069 3584 
Q 2775 3584 3186 3129 
Q 3597 2675 3597 1894 
z
M 3022 2063 
Q 3016 2534 2758 2815 
Q 2500 3097 2075 3097 
Q 1594 3097 1305 2825 
Q 1016 2553 972 2059 
L 3022 2063 
z
" transform="scale(0.015625)"/>
       <path id="DejaVuSans-72" d="M 2631 2963 
Q 2534 3019 2420 3045 
Q 2306 3072 2169 3072 
Q 1681 3072 1420 2755 
Q 1159 2438 1159 1844 
L 1159 0 
L 581 0 
L 581 3500 
L 1159 3500 
L 1159 2956 
Q 1341 3275 1631 3429 
Q 1922 3584 2338 3584 
Q 2397 3584 2469 3576 
Q 2541 3569 2628 3553 
L 2631 2963 
z
" transform="scale(0.015625)"/>
       <path id="DejaVuSans-61" d="M 2194 1759 
Q 1497 1759 1228 1600 
Q 959 1441 959 1056 
Q 959 750 1161 570 
Q 1363 391 1709 391 
Q 2188 391 2477 730 
Q 2766 1069 2766 1631 
L 2766 1759 
L 2194 1759 
z
M 3341 1997 
L 3341 0 
L 2766 0 
L 2766 531 
Q 2569 213 2275 61 
Q 1981 -91 1556 -91 
Q 1019 -91 701 211 
Q 384 513 384 1019 
Q 384 1609 779 1909 
Q 1175 2209 1959 2209 
L 2766 2209 
L 2766 2266 
Q 2766 2663 2505 2880 
Q 2244 3097 1772 3097 
Q 1472 3097 1187 3025 
Q 903 2953 641 2809 
L 641 3341 
Q 956 3463 1253 3523 
Q 1550 3584 1831 3584 
Q 2591 3584 2966 3190 
Q 3341 2797 3341 1997 
z
" transform="scale(0.015625)"/>
       <path id="DejaVuSans-67" d="M 2906 1791 
Q 2906 2416 2648 2759 
Q 2391 3103 1925 3103 
Q 1463 3103 1205 2759 
Q 947 2416 947 1791 
Q 947 1169 1205 825 
Q 1463 481 1925 481 
Q 2391 481 2648 825 
Q 2906 1169 2906 1791 
z
M 3481 434 
Q 3481 -459 3084 -895 
Q 2688 -1331 1869 -1331 
Q 1566 -1331 1297 -1286 
Q 1028 -1241 775 -1147 
L 775 -588 
Q 1028 -725 1275 -790 
Q 1522 -856 1778 -856 
Q 2344 -856 2625 -561 
Q 2906 -266 2906 331 
L 2906 616 
Q 2728 306 2450 153 
Q 2172 0 1784 0 
Q 1141 0 747 490 
Q 353 981 353 1791 
Q 353 2603 747 3093 
Q 1141 3584 1784 3584 
Q 2172 3584 2450 3431 
Q 2728 3278 2906 2969 
L 2906 3500 
L 3481 3500 
L 3481 434 
z
" transform="scale(0.015625)"/>
       <path id="DejaVuSans-20" transform="scale(0.015625)"/>
       <path id="DejaVuSans-52" d="M 2841 2188 
Q 3044 2119 3236 1894 
Q 3428 1669 3622 1275 
L 4263 0 
L 3584 0 
L 2988 1197 
Q 2756 1666 2539 1819 
Q 2322 1972 1947 1972 
L 1259 1972 
L 1259 0 
L 628 0 
L 628 4666 
L 2053 4666 
Q 2853 4666 3247 4331 
Q 3641 3997 3641 3322 
Q 3641 2881 3436 2590 
Q 3231 2300 2841 2188 
z
M 1259 4147 
L 1259 2491 
L 2053 2491 
Q 2509 2491 2742 2702 
Q 2975 2913 2975 3322 
Q 2975 3731 2742 3939 
Q 2509 4147 2053 4147 
L 1259 4147 
z
" transform="scale(0.015625)"/>
       <path id="DejaVuSans-69" d="M 603 3500 
L 1178 3500 
L 1178 0 
L 603 0 
L 603 3500 
z
M 603 4863 
L 1178 4863 
L 1178 4134 
L 603 4134 
L 603 4863 
z
" transform="scale(0.015625)"/>
       <path id="DejaVuSans-68" d="M 3513 2113 
L 3513 0 
L 2938 0 
L 2938 2094 
Q 2938 2591 2744 2837 
Q 2550 3084 2163 3084 
Q 1697 3084 1428 2787 
Q 1159 2491 1159 1978 
L 1159 0 
L 581 0 
L 581 4863 
L 1159 4863 
L 1159 2956 
Q 1366 3272 1645 3428 
Q 1925 3584 2291 3584 
Q 2894 3584 3203 3211 
Q 3513 2838 3513 2113 
z
" transform="scale(0.015625)"/>
       <path id="DejaVuSans-74" d="M 1172 4494 
L 1172 3500 
L 2356 3500 
L 2356 3053 
L 1172 3053 
L 1172 1153 
Q 1172 725 1289 603 
Q 1406 481 1766 481 
L 2356 481 
L 2356 0 
L 1766 0 
Q 1100 0 847 248 
Q 594 497 594 1153 
L 594 3053 
L 172 3053 
L 172 3500 
L 594 3500 
L 594 4494 
L 1172 4494 
z
" transform="scale(0.015625)"/>
       <path id="DejaVuSans-53" d="M 3425 4513 
L 3425 3897 
Q 3066 4069 2747 4153 
Q 2428 4238 2131 4238 
Q 1616 4238 1336 4038 
Q 1056 3838 1056 3469 
Q 1056 3159 1242 3001 
Q 1428 2844 1947 2747 
L 2328 2669 
Q 3034 2534 3370 2195 
Q 3706 1856 3706 1288 
Q 3706 609 3251 259 
Q 2797 -91 1919 -91 
Q 1588 -91 1214 -16 
Q 841 59 441 206 
L 441 856 
Q 825 641 1194 531 
Q 1563 422 1919 422 
Q 2459 422 2753 634 
Q 3047 847 3047 1241 
Q 3047 1584 2836 1778 
Q 2625 1972 2144 2069 
L 1759 2144 
Q 1053 2284 737 2584 
Q 422 2884 422 3419 
Q 422 4038 858 4394 
Q 1294 4750 2059 4750 
Q 2388 4750 2728 4690 
Q 3069 4631 3425 4513 
z
" transform="scale(0.015625)"/>
       <path id="DejaVuSans-62" d="M 3116 1747 
Q 3116 2381 2855 2742 
Q 2594 3103 2138 3103 
Q 1681 3103 1420 2742 
Q 1159 2381 1159 1747 
Q 1159 1113 1420 752 
Q 1681 391 2138 391 
Q 2594 391 2855 752 
Q 3116 1113 3116 1747 
z
M 1159 2969 
Q 1341 3281 1617 3432 
Q 1894 3584 2278 3584 
Q 2916 3584 3314 3078 
Q 3713 2572 3713 1747 
Q 3713 922 3314 415 
Q 2916 -91 2278 -91 
Q 1894 -91 1617 61 
Q 1341 213 1159 525 
L 1159 0 
L 581 0 
L 581 4863 
L 1159 4863 
L 1159 2969 
z
" transform="scale(0.015625)"/>
       <path id="DejaVuSans-4c" d="M 628 4666 
L 1259 4666 
L 1259 531 
L 3531 531 
L 3531 0 
L 628 0 
L 628 4666 
z
" transform="scale(0.015625)"/>
       <path id="DejaVuSans-Oblique-3b2" d="M 872 216 
L 572 -1331 
L -6 -1331 
L 928 3478 
Q 1206 4903 2538 4903 
Q 3888 4903 3659 3700 
Q 3503 2844 2894 2531 
Q 3713 2250 3553 1416 
Q 3272 -69 1759 -66 
Q 1097 -63 872 216 
z
M 1019 966 
Q 1259 422 1875 425 
Q 2775 425 2966 1406 
Q 3138 2288 1675 2219 
L 1778 2750 
Q 2909 2731 3106 3750 
Q 3241 4438 2509 4434 
Q 1691 4434 1503 3459 
L 1019 966 
z
" transform="scale(0.015625)"/>
      </defs>
      <use xlink:href="#DejaVuSans-41" transform="translate(0 0.390625)"/>
      <use xlink:href="#DejaVuSans-76" transform="translate(68.408203 0.390625)"/>
      <use xlink:href="#DejaVuSans-65" transform="translate(127.587891 0.390625)"/>
      <use xlink:href="#DejaVuSans-72" transform="translate(189.111328 0.390625)"/>
      <use xlink:href="#DejaVuSans-61" transform="translate(230.224609 0.390625)"/>
      <use xlink:href="#DejaVuSans-67" transform="translate(291.503906 0.390625)"/>
      <use xlink:href="#DejaVuSans-65" transform="translate(354.980469 0.390625)"/>
      <use xlink:href="#DejaVuSans-20" transform="translate(416.503906 0.390625)"/>
      <use xlink:href="#DejaVuSans-52" transform="translate(448.291016 0.390625)"/>
      <use xlink:href="#DejaVuSans-69" transform="translate(517.773438 0.390625)"/>
      <use xlink:href="#DejaVuSans-67" transform="translate(545.556641 0.390625)"/>
      <use xlink:href="#DejaVuSans-68" transform="translate(609.033203 0.390625)"/>
      <use xlink:href="#DejaVuSans-74" transform="translate(672.412109 0.390625)"/>
      <use xlink:href="#DejaVuSans-20" transform="translate(711.621094 0.390625)"/>
      <use xlink:href="#DejaVuSans-53" transform="translate(743.408203 0.390625)"/>
      <use xlink:href="#DejaVuSans-62" transform="translate(806.884766 0.390625)"/>
      <use xlink:href="#DejaVuSans-4c" transform="translate(870.361328 0.390625)"/>
      <use xlink:href="#DejaVuSans-20" transform="translate(926.074219 0.390625)"/>
      <use xlink:href="#DejaVuSans-Oblique-3b2" transform="translate(957.861328 0.390625)"/>
     </g>
    </g>
   </g>
   <g id="matplotlib.axis_2">
    <g id="ytick_1">
     <g id="line2d_19">
      <defs>
       <path id="mf81cdd090a" d="M 0 0 
L -3.5 0 
" style="stroke: #000000; stroke-width: 0.8"/>
      </defs>
      <g>
       <use xlink:href="#mf81cdd090a" x="129.13" y="225.422746" style="stroke: #000000; stroke-width: 0.8"/>
      </g>
     </g>
     <g id="text_11">
      <!-- other (n=3) -->
      <g transform="translate(63.428437 229.221965) scale(0.1 -0.1)">
       <defs>
        <path id="DejaVuSans-6f" d="M 1959 3097 
Q 1497 3097 1228 2736 
Q 959 2375 959 1747 
Q 959 1119 1226 758 
Q 1494 397 1959 397 
Q 2419 397 2687 759 
Q 2956 1122 2956 1747 
Q 2956 2369 2687 2733 
Q 2419 3097 1959 3097 
z
M 1959 3584 
Q 2709 3584 3137 3096 
Q 3566 2609 3566 1747 
Q 3566 888 3137 398 
Q 2709 -91 1959 -91 
Q 1206 -91 779 398 
Q 353 888 353 1747 
Q 353 2609 779 3096 
Q 1206 3584 1959 3584 
z
" transform="scale(0.015625)"/>
        <path id="DejaVuSans-28" d="M 1984 4856 
Q 1566 4138 1362 3434 
Q 1159 2731 1159 2009 
Q 1159 1288 1364 580 
Q 1569 -128 1984 -844 
L 1484 -844 
Q 1016 -109 783 600 
Q 550 1309 550 2009 
Q 550 2706 781 3412 
Q 1013 4119 1484 4856 
L 1984 4856 
z
" transform="scale(0.015625)"/>
        <path id="DejaVuSans-6e" d="M 3513 2113 
L 3513 0 
L 2938 0 
L 2938 2094 
Q 2938 2591 2744 2837 
Q 2550 3084 2163 3084 
Q 1697 3084 1428 2787 
Q 1159 2491 1159 1978 
L 1159 0 
L 581 0 
L 581 3500 
L 1159 3500 
L 1159 2956 
Q 1366 3272 1645 3428 
Q 1925 3584 2291 3584 
Q 2894 3584 3203 3211 
Q 3513 2838 3513 2113 
z
" transform="scale(0.015625)"/>
        <path id="DejaVuSans-3d" d="M 678 2906 
L 4684 2906 
L 4684 2381 
L 678 2381 
L 678 2906 
z
M 678 1631 
L 4684 1631 
L 4684 1100 
L 678 1100 
L 678 1631 
z
" transform="scale(0.015625)"/>
        <path id="DejaVuSans-29" d="M 513 4856 
L 1013 4856 
Q 1481 4119 1714 3412 
Q 1947 2706 1947 2009 
Q 1947 1309 1714 600 
Q 1481 -109 1013 -844 
L 513 -844 
Q 928 -128 1133 580 
Q 1338 1288 1338 2009 
Q 1338 2731 1133 3434 
Q 928 4138 513 4856 
z
" transform="scale(0.015625)"/>
       </defs>
       <use xlink:href="#DejaVuSans-6f"/>
       <use xlink:href="#DejaVuSans-74" transform="translate(61.181641 0)"/>
       <use xlink:href="#DejaVuSans-68" transform="translate(100.390625 0)"/>
       <use xlink:href="#DejaVuSans-65" transform="translate(163.769531 0)"/>
       <use xlink:href="#DejaVuSans-72" transform="translate(225.292969 0)"/>
       <use xlink:href="#DejaVuSans-20" transform="translate(266.40625 0)"/>
       <use xlink:href="#DejaVuSans-28" transform="translate(298.193359 0)"/>
       <use xlink:href="#DejaVuSans-6e" transform="translate(337.207031 0)"/>
       <use xlink:href="#DejaVuSans-3d" transform="translate(400.585938 0)"/>
       <use xlink:href="#DejaVuSans-33" transform="translate(484.375 0)"/>
       <use xlink:href="#DejaVuSans-29" transform="translate(547.998047 0)"/>
      </g>
     </g>
    </g>
    <g id="ytick_2">
     <g id="line2d_20">
      <g>
       <use xlink:href="#mf81cdd090a" x="129.13" y="205.493247" style="stroke: #000000; stroke-width: 0.8"/>
      </g>
     </g>
     <g id="text_12">
      <!-- Tupian (n=9) -->
      <g transform="translate(57.544062 209.292466) scale(0.1 -0.1)">
       <defs>
        <path id="DejaVuSans-54" d="M -19 4666 
L 3928 4666 
L 3928 4134 
L 2272 4134 
L 2272 0 
L 1638 0 
L 1638 4134 
L -19 4134 
L -19 4666 
z
" transform="scale(0.015625)"/>
        <path id="DejaVuSans-75" d="M 544 1381 
L 544 3500 
L 1119 3500 
L 1119 1403 
Q 1119 906 1312 657 
Q 1506 409 1894 409 
Q 2359 409 2629 706 
Q 2900 1003 2900 1516 
L 2900 3500 
L 3475 3500 
L 3475 0 
L 2900 0 
L 2900 538 
Q 2691 219 2414 64 
Q 2138 -91 1772 -91 
Q 1169 -91 856 284 
Q 544 659 544 1381 
z
M 1991 3584 
L 1991 3584 
z
" transform="scale(0.015625)"/>
        <path id="DejaVuSans-70" d="M 1159 525 
L 1159 -1331 
L 581 -1331 
L 581 3500 
L 1159 3500 
L 1159 2969 
Q 1341 3281 1617 3432 
Q 1894 3584 2278 3584 
Q 2916 3584 3314 3078 
Q 3713 2572 3713 1747 
Q 3713 922 3314 415 
Q 2916 -91 2278 -91 
Q 1894 -91 1617 61 
Q 1341 213 1159 525 
z
M 3116 1747 
Q 3116 2381 2855 2742 
Q 2594 3103 2138 3103 
Q 1681 3103 1420 2742 
Q 1159 2381 1159 1747 
Q 1159 1113 1420 752 
Q 1681 391 2138 391 
Q 2594 391 2855 752 
Q 3116 1113 3116 1747 
z
" transform="scale(0.015625)"/>
        <path id="DejaVuSans-39" d="M 703 97 
L 703 672 
Q 941 559 1184 500 
Q 1428 441 1663 441 
Q 2288 441 2617 861 
Q 2947 1281 2994 2138 
Q 2813 1869 2534 1725 
Q 2256 1581 1919 1581 
Q 1219 1581 811 2004 
Q 403 2428 403 3163 
Q 403 3881 828 4315 
Q 1253 4750 1959 4750 
Q 2769 4750 3195 4129 
Q 3622 3509 3622 2328 
Q 3622 1225 3098 567 
Q 2575 -91 1691 -91 
Q 1453 -91 1209 -44 
Q 966 3 703 97 
z
M 1959 2075 
Q 2384 2075 2632 2365 
Q 2881 2656 2881 3163 
Q 2881 3666 2632 3958 
Q 2384 4250 1959 4250 
Q 1534 4250 1286 3958 
Q 1038 3666 1038 3163 
Q 1038 2656 1286 2365 
Q 1534 2075 1959 2075 
z
" transform="scale(0.015625)"/>
       </defs>
       <use xlink:href="#DejaVuSans-54"/>
       <use xlink:href="#DejaVuSans-75" transform="translate(45.958984 0)"/>
       <use xlink:href="#DejaVuSans-70" transform="translate(109.337891 0)"/>
       <use xlink:href="#DejaVuSans-69" transform="translate(172.814453 0)"/>
       <use xlink:href="#DejaVuSans-61" transform="translate(200.597656 0)"/>
       <use xlink:href="#DejaVuSans-6e" transform="translate(261.876953 0)"/>
       <use xlink:href="#DejaVuSans-20" transform="translate(325.255859 0)"/>
       <use xlink:href="#DejaVuSans-28" transform="translate(357.042969 0)"/>
       <use xlink:href="#DejaVuSans-6e" transform="translate(396.056641 0)"/>
       <use xlink:href="#DejaVuSans-3d" transform="translate(459.435547 0)"/>
       <use xlink:href="#DejaVuSans-39" transform="translate(543.224609 0)"/>
       <use xlink:href="#DejaVuSans-29" transform="translate(606.847656 0)"/>
      </g>
     </g>
    </g>
    <g id="ytick_3">
     <g id="line2d_21">
      <g>
       <use xlink:href="#mf81cdd090a" x="129.13" y="185.563748" style="stroke: #000000; stroke-width: 0.8"/>
      </g>
     </g>
     <g id="text_13">
      <!-- Sino-Tibetan (n=6) -->
      <g transform="translate(28.1425 189.362966) scale(0.1 -0.1)">
       <defs>
        <path id="DejaVuSans-2d" d="M 313 2009 
L 1997 2009 
L 1997 1497 
L 313 1497 
L 313 2009 
z
" transform="scale(0.015625)"/>
       </defs>
       <use xlink:href="#DejaVuSans-53"/>
       <use xlink:href="#DejaVuSans-69" transform="translate(63.476562 0)"/>
       <use xlink:href="#DejaVuSans-6e" transform="translate(91.259766 0)"/>
       <use xlink:href="#DejaVuSans-6f" transform="translate(154.638672 0)"/>
       <use xlink:href="#DejaVuSans-2d" transform="translate(217.695312 0)"/>
       <use xlink:href="#DejaVuSans-54" transform="translate(244.654297 0)"/>
       <use xlink:href="#DejaVuSans-69" transform="translate(302.613281 0)"/>
       <use xlink:href="#DejaVuSans-62" transform="translate(330.396484 0)"/>
       <use xlink:href="#DejaVuSans-65" transform="translate(393.873047 0)"/>
       <use xlink:href="#DejaVuSans-74" transform="translate(455.396484 0)"/>
       <use xlink:href="#DejaVuSans-61" transform="translate(494.605469 0)"/>
       <use xlink:href="#DejaVuSans-6e" transform="translate(555.884766 0)"/>
       <use xlink:href="#DejaVuSans-20" transform="translate(619.263672 0)"/>
       <use xlink:href="#DejaVuSans-28" transform="translate(651.050781 0)"/>
       <use xlink:href="#DejaVuSans-6e" transform="translate(690.064453 0)"/>
       <use xlink:href="#DejaVuSans-3d" transform="translate(753.443359 0)"/>
       <use xlink:href="#DejaVuSans-36" transform="translate(837.232422 0)"/>
       <use xlink:href="#DejaVuSans-29" transform="translate(900.855469 0)"/>
      </g>
     </g>
    </g>
    <g id="ytick_4">
     <g id="line2d_22">
      <g>
       <use xlink:href="#mf81cdd090a" x="129.13" y="165.634249" style="stroke: #000000; stroke-width: 0.8"/>
      </g>
     </g>
     <g id="text_14">
      <!-- Niger-Congo (n=3) -->
      <g transform="translate(28.320625 169.433467) scale(0.1 -0.1)">
       <defs>
        <path id="DejaVuSans-4e" d="M 628 4666 
L 1478 4666 
L 3547 763 
L 3547 4666 
L 4159 4666 
L 4159 0 
L 3309 0 
L 1241 3903 
L 1241 0 
L 628 0 
L 628 4666 
z
" transform="scale(0.015625)"/>
        <path id="DejaVuSans-43" d="M 4122 4306 
L 4122 3641 
Q 3803 3938 3442 4084 
Q 3081 4231 2675 4231 
Q 1875 4231 1450 3742 
Q 1025 3253 1025 2328 
Q 1025 1406 1450 917 
Q 1875 428 2675 428 
Q 3081 428 3442 575 
Q 3803 722 4122 1019 
L 4122 359 
Q 3791 134 3420 21 
Q 3050 -91 2638 -91 
Q 1578 -91 968 557 
Q 359 1206 359 2328 
Q 359 3453 968 4101 
Q 1578 4750 2638 4750 
Q 3056 4750 3426 4639 
Q 3797 4528 4122 4306 
z
" transform="scale(0.015625)"/>
       </defs>
       <use xlink:href="#DejaVuSans-4e"/>
       <use xlink:href="#DejaVuSans-69" transform="translate(74.804688 0)"/>
       <use xlink:href="#DejaVuSans-67" transform="translate(102.587891 0)"/>
       <use xlink:href="#DejaVuSans-65" transform="translate(166.064453 0)"/>
       <use xlink:href="#DejaVuSans-72" transform="translate(227.587891 0)"/>
       <use xlink:href="#DejaVuSans-2d" transform="translate(262.326172 0)"/>
       <use xlink:href="#DejaVuSans-43" transform="translate(298.410156 0)"/>
       <use xlink:href="#DejaVuSans-6f" transform="translate(368.234375 0)"/>
       <use xlink:href="#DejaVuSans-6e" transform="translate(429.416016 0)"/>
       <use xlink:href="#DejaVuSans-67" transform="translate(492.794922 0)"/>
       <use xlink:href="#DejaVuSans-6f" transform="translate(556.271484 0)"/>
       <use xlink:href="#DejaVuSans-20" transform="translate(617.453125 0)"/>
       <use xlink:href="#DejaVuSans-28" transform="translate(649.240234 0)"/>
       <use xlink:href="#DejaVuSans-6e" transform="translate(688.253906 0)"/>
       <use xlink:href="#DejaVuSans-3d" transform="translate(751.632812 0)"/>
       <use xlink:href="#DejaVuSans-33" transform="translate(835.421875 0)"/>
       <use xlink:href="#DejaVuSans-29" transform="translate(899.044922 0)"/>
      </g>
     </g>
    </g>
    <g id="ytick_5">
     <g id="line2d_23">
      <g>
       <use xlink:href="#mf81cdd090a" x="129.13" y="145.70475" style="stroke: #000000; stroke-width: 0.8"/>
      </g>
     </g>
     <g id="text_15">
      <!-- Austronesian (n=3) -->
      <g transform="translate(24.812812 149.503968) scale(0.1 -0.1)">
       <defs>
        <path id="DejaVuSans-73" d="M 2834 3397 
L 2834 2853 
Q 2591 2978 2328 3040 
Q 2066 3103 1784 3103 
Q 1356 3103 1142 2972 
Q 928 2841 928 2578 
Q 928 2378 1081 2264 
Q 1234 2150 1697 2047 
L 1894 2003 
Q 2506 1872 2764 1633 
Q 3022 1394 3022 966 
Q 3022 478 2636 193 
Q 2250 -91 1575 -91 
Q 1294 -91 989 -36 
Q 684 19 347 128 
L 347 722 
Q 666 556 975 473 
Q 1284 391 1588 391 
Q 1994 391 2212 530 
Q 2431 669 2431 922 
Q 2431 1156 2273 1281 
Q 2116 1406 1581 1522 
L 1381 1569 
Q 847 1681 609 1914 
Q 372 2147 372 2553 
Q 372 3047 722 3315 
Q 1072 3584 1716 3584 
Q 2034 3584 2315 3537 
Q 2597 3491 2834 3397 
z
" transform="scale(0.015625)"/>
       </defs>
       <use xlink:href="#DejaVuSans-41"/>
       <use xlink:href="#DejaVuSans-75" transform="translate(68.408203 0)"/>
       <use xlink:href="#DejaVuSans-73" transform="translate(131.787109 0)"/>
       <use xlink:href="#DejaVuSans-74" transform="translate(183.886719 0)"/>
       <use xlink:href="#DejaVuSans-72" transform="translate(223.095703 0)"/>
       <use xlink:href="#DejaVuSans-6f" transform="translate(261.958984 0)"/>
       <use xlink:href="#DejaVuSans-6e" transform="translate(323.140625 0)"/>
       <use xlink:href="#DejaVuSans-65" transform="translate(386.519531 0)"/>
       <use xlink:href="#DejaVuSans-73" transform="translate(448.042969 0)"/>
       <use xlink:href="#DejaVuSans-69" transform="translate(500.142578 0)"/>
       <use xlink:href="#DejaVuSans-61" transform="translate(527.925781 0)"/>
       <use xlink:href="#DejaVuSans-6e" transform="translate(589.205078 0)"/>
       <use xlink:href="#DejaVuSans-20" transform="translate(652.583984 0)"/>
       <use xlink:href="#DejaVuSans-28" transform="translate(684.371094 0)"/>
       <use xlink:href="#DejaVuSans-6e" transform="translate(723.384766 0)"/>
       <use xlink:href="#DejaVuSans-3d" transform="translate(786.763672 0)"/>
       <use xlink:href="#DejaVuSans-33" transform="translate(870.552734 0)"/>
       <use xlink:href="#DejaVuSans-29" transform="translate(934.175781 0)"/>
      </g>
     </g>
    </g>
    <g id="ytick_6">
     <g id="line2d_24">
      <g>
       <use xlink:href="#mf81cdd090a" x="129.13" y="125.77525" style="stroke: #000000; stroke-width: 0.8"/>
      </g>
     </g>
     <g id="text_16">
      <!-- Afro-Asiatic (n=14) -->
      <g transform="translate(26.98 129.574469) scale(0.1 -0.1)">
       <defs>
        <path id="DejaVuSans-66" d="M 2375 4863 
L 2375 4384 
L 1825 4384 
Q 1516 4384 1395 4259 
Q 1275 4134 1275 3809 
L 1275 3500 
L 2222 3500 
L 2222 3053 
L 1275 3053 
L 1275 0 
L 697 0 
L 697 3053 
L 147 3053 
L 147 3500 
L 697 3500 
L 697 3744 
Q 697 4328 969 4595 
Q 1241 4863 1831 4863 
L 2375 4863 
z
" transform="scale(0.015625)"/>
        <path id="DejaVuSans-63" d="M 3122 3366 
L 3122 2828 
Q 2878 2963 2633 3030 
Q 2388 3097 2138 3097 
Q 1578 3097 1268 2742 
Q 959 2388 959 1747 
Q 959 1106 1268 751 
Q 1578 397 2138 397 
Q 2388 397 2633 464 
Q 2878 531 3122 666 
L 3122 134 
Q 2881 22 2623 -34 
Q 2366 -91 2075 -91 
Q 1284 -91 818 406 
Q 353 903 353 1747 
Q 353 2603 823 3093 
Q 1294 3584 2113 3584 
Q 2378 3584 2631 3529 
Q 2884 3475 3122 3366 
z
" transform="scale(0.015625)"/>
       </defs>
       <use xlink:href="#DejaVuSans-41"/>
       <use xlink:href="#DejaVuSans-66" transform="translate(64.783203 0)"/>
       <use xlink:href="#DejaVuSans-72" transform="translate(99.988281 0)"/>
       <use xlink:href="#DejaVuSans-6f" transform="translate(138.851562 0)"/>
       <use xlink:href="#DejaVuSans-2d" transform="translate(201.908203 0)"/>
       <use xlink:href="#DejaVuSans-41" transform="translate(235.742188 0)"/>
       <use xlink:href="#DejaVuSans-73" transform="translate(304.150391 0)"/>
       <use xlink:href="#DejaVuSans-69" transform="translate(356.25 0)"/>
       <use xlink:href="#DejaVuSans-61" transform="translate(384.033203 0)"/>
       <use xlink:href="#DejaVuSans-74" transform="translate(445.3125 0)"/>
       <use xlink:href="#DejaVuSans-69" transform="translate(484.521484 0)"/>
       <use xlink:href="#DejaVuSans-63" transform="translate(512.304688 0)"/>
       <use xlink:href="#DejaVuSans-20" transform="translate(567.285156 0)"/>
       <use xlink:href="#DejaVuSans-28" transform="translate(599.072266 0)"/>
       <use xlink:href="#DejaVuSans-6e" transform="translate(638.085938 0)"/>
       <use xlink:href="#DejaVuSans-3d" transform="translate(701.464844 0)"/>
       <use xlink:href="#DejaVuSans-31" transform="translate(785.253906 0)"/>
       <use xlink:href="#DejaVuSans-34" transform="translate(848.876953 0)"/>
       <use xlink:href="#DejaVuSans-29" transform="translate(912.5 0)"/>
      </g>
     </g>
    </g>
    <g id="ytick_7">
     <g id="line2d_25">
      <g>
       <use xlink:href="#mf81cdd090a" x="129.13" y="105.845751" style="stroke: #000000; stroke-width: 0.8"/>
      </g>
     </g>
     <g id="text_17">
      <!-- Chibchan (n=3) -->
      <g transform="translate(43.320625 109.64497) scale(0.1 -0.1)">
       <use xlink:href="#DejaVuSans-43"/>
       <use xlink:href="#DejaVuSans-68" transform="translate(69.824219 0)"/>
       <use xlink:href="#DejaVuSans-69" transform="translate(133.203125 0)"/>
       <use xlink:href="#DejaVuSans-62" transform="translate(160.986328 0)"/>
       <use xlink:href="#DejaVuSans-63" transform="translate(224.462891 0)"/>
       <use xlink:href="#DejaVuSans-68" transform="translate(279.443359 0)"/>
       <use xlink:href="#DejaVuSans-61" transform="translate(342.822266 0)"/>
       <use xlink:href="#DejaVuSans-6e" transform="translate(404.101562 0)"/>
       <use xlink:href="#DejaVuSans-20" transform="translate(467.480469 0)"/>
       <use xlink:href="#DejaVuSans-28" transform="translate(499.267578 0)"/>
       <use xlink:href="#DejaVuSans-6e" transform="translate(538.28125 0)"/>
       <use xlink:href="#DejaVuSans-3d" transform="translate(601.660156 0)"/>
       <use xlink:href="#DejaVuSans-33" transform="translate(685.449219 0)"/>
       <use xlink:href="#DejaVuSans-29" transform="translate(749.072266 0)"/>
      </g>
     </g>
    </g>
    <g id="ytick_8">
     <g id="line2d_26">
      <g>
       <use xlink:href="#mf81cdd090a" x="129.13" y="85.916252" style="stroke: #000000; stroke-width: 0.8"/>
      </g>
     </g>
     <g id="text_18">
      <!-- Uralic (n=11) -->
      <g transform="translate(55.094062 89.715471) scale(0.1 -0.1)">
       <defs>
        <path id="DejaVuSans-55" d="M 556 4666 
L 1191 4666 
L 1191 1831 
Q 1191 1081 1462 751 
Q 1734 422 2344 422 
Q 2950 422 3222 751 
Q 3494 1081 3494 1831 
L 3494 4666 
L 4128 4666 
L 4128 1753 
Q 4128 841 3676 375 
Q 3225 -91 2344 -91 
Q 1459 -91 1007 375 
Q 556 841 556 1753 
L 556 4666 
z
" transform="scale(0.015625)"/>
        <path id="DejaVuSans-6c" d="M 603 4863 
L 1178 4863 
L 1178 0 
L 603 0 
L 603 4863 
z
" transform="scale(0.015625)"/>
       </defs>
       <use xlink:href="#DejaVuSans-55"/>
       <use xlink:href="#DejaVuSans-72" transform="translate(73.193359 0)"/>
       <use xlink:href="#DejaVuSans-61" transform="translate(114.306641 0)"/>
       <use xlink:href="#DejaVuSans-6c" transform="translate(175.585938 0)"/>
       <use xlink:href="#DejaVuSans-69" transform="translate(203.369141 0)"/>
       <use xlink:href="#DejaVuSans-63" transform="translate(231.152344 0)"/>
       <use xlink:href="#DejaVuSans-20" transform="translate(286.132812 0)"/>
       <use xlink:href="#DejaVuSans-28" transform="translate(317.919922 0)"/>
       <use xlink:href="#DejaVuSans-6e" transform="translate(356.933594 0)"/>
       <use xlink:href="#DejaVuSans-3d" transform="translate(420.3125 0)"/>
       <use xlink:href="#DejaVuSans-31" transform="translate(504.101562 0)"/>
       <use xlink:href="#DejaVuSans-31" transform="translate(567.724609 0)"/>
       <use xlink:href="#DejaVuSans-29" transform="translate(631.347656 0)"/>
      </g>
     </g>
    </g>
    <g id="ytick_9">
     <g id="line2d_27">
      <g>
       <use xlink:href="#mf81cdd090a" x="129.13" y="65.986753" style="stroke: #000000; stroke-width: 0.8"/>
      </g>
     </g>
     <g id="text_19">
      <!-- Mixed (n=3) -->
      <g transform="translate(60.555 69.785972) scale(0.1 -0.1)">
       <defs>
        <path id="DejaVuSans-4d" d="M 628 4666 
L 1569 4666 
L 2759 1491 
L 3956 4666 
L 4897 4666 
L 4897 0 
L 4281 0 
L 4281 4097 
L 3078 897 
L 2444 897 
L 1241 4097 
L 1241 0 
L 628 0 
L 628 4666 
z
" transform="scale(0.015625)"/>
        <path id="DejaVuSans-78" d="M 3513 3500 
L 2247 1797 
L 3578 0 
L 2900 0 
L 1881 1375 
L 863 0 
L 184 0 
L 1544 1831 
L 300 3500 
L 978 3500 
L 1906 2253 
L 2834 3500 
L 3513 3500 
z
" transform="scale(0.015625)"/>
        <path id="DejaVuSans-64" d="M 2906 2969 
L 2906 4863 
L 3481 4863 
L 3481 0 
L 2906 0 
L 2906 525 
Q 2725 213 2448 61 
Q 2172 -91 1784 -91 
Q 1150 -91 751 415 
Q 353 922 353 1747 
Q 353 2572 751 3078 
Q 1150 3584 1784 3584 
Q 2172 3584 2448 3432 
Q 2725 3281 2906 2969 
z
M 947 1747 
Q 947 1113 1208 752 
Q 1469 391 1925 391 
Q 2381 391 2643 752 
Q 2906 1113 2906 1747 
Q 2906 2381 2643 2742 
Q 2381 3103 1925 3103 
Q 1469 3103 1208 2742 
Q 947 2381 947 1747 
z
" transform="scale(0.015625)"/>
       </defs>
       <use xlink:href="#DejaVuSans-4d"/>
       <use xlink:href="#DejaVuSans-69" transform="translate(86.279297 0)"/>
       <use xlink:href="#DejaVuSans-78" transform="translate(114.0625 0)"/>
       <use xlink:href="#DejaVuSans-65" transform="translate(170.117188 0)"/>
       <use xlink:href="#DejaVuSans-64" transform="translate(231.640625 0)"/>
       <use xlink:href="#DejaVuSans-20" transform="translate(295.117188 0)"/>
       <use xlink:href="#DejaVuSans-28" transform="translate(326.904297 0)"/>
       <use xlink:href="#DejaVuSans-6e" transform="translate(365.917969 0)"/>
       <use xlink:href="#DejaVuSans-3d" transform="translate(429.296875 0)"/>
       <use xlink:href="#DejaVuSans-33" transform="translate(513.085938 0)"/>
       <use xlink:href="#DejaVuSans-29" transform="translate(576.708984 0)"/>
      </g>
     </g>
    </g>
    <g id="ytick_10">
     <g id="line2d_28">
      <g>
       <use xlink:href="#mf81cdd090a" x="129.13" y="46.057254" style="stroke: #000000; stroke-width: 0.8"/>
      </g>
     </g>
     <g id="text_20">
      <!-- Indo-European (n=75) -->
      <g transform="translate(10.528437 49.856473) scale(0.1 -0.1)">
       <defs>
        <path id="DejaVuSans-49" d="M 628 4666 
L 1259 4666 
L 1259 0 
L 628 0 
L 628 4666 
z
" transform="scale(0.015625)"/>
        <path id="DejaVuSans-45" d="M 628 4666 
L 3578 4666 
L 3578 4134 
L 1259 4134 
L 1259 2753 
L 3481 2753 
L 3481 2222 
L 1259 2222 
L 1259 531 
L 3634 531 
L 3634 0 
L 628 0 
L 628 4666 
z
" transform="scale(0.015625)"/>
       </defs>
       <use xlink:href="#DejaVuSans-49"/>
       <use xlink:href="#DejaVuSans-6e" transform="translate(29.492188 0)"/>
       <use xlink:href="#DejaVuSans-64" transform="translate(92.871094 0)"/>
       <use xlink:href="#DejaVuSans-6f" transform="translate(156.347656 0)"/>
       <use xlink:href="#DejaVuSans-2d" transform="translate(219.404297 0)"/>
       <use xlink:href="#DejaVuSans-45" transform="translate(255.488281 0)"/>
       <use xlink:href="#DejaVuSans-75" transform="translate(318.671875 0)"/>
       <use xlink:href="#DejaVuSans-72" transform="translate(382.050781 0)"/>
       <use xlink:href="#DejaVuSans-6f" transform="translate(420.914062 0)"/>
       <use xlink:href="#DejaVuSans-70" transform="translate(482.095703 0)"/>
       <use xlink:href="#DejaVuSans-65" transform="translate(545.572266 0)"/>
       <use xlink:href="#DejaVuSans-61" transform="translate(607.095703 0)"/>
       <use xlink:href="#DejaVuSans-6e" transform="translate(668.375 0)"/>
       <use xlink:href="#DejaVuSans-20" transform="translate(731.753906 0)"/>
       <use xlink:href="#DejaVuSans-28" transform="translate(763.541016 0)"/>
       <use xlink:href="#DejaVuSans-6e" transform="translate(802.554688 0)"/>
       <use xlink:href="#DejaVuSans-3d" transform="translate(865.933594 0)"/>
       <use xlink:href="#DejaVuSans-37" transform="translate(949.722656 0)"/>
       <use xlink:href="#DejaVuSans-35" transform="translate(1013.345703 0)"/>
       <use xlink:href="#DejaVuSans-29" transform="translate(1076.96875 0)"/>
      </g>
     </g>
    </g>
   </g>
   <g id="line2d_29">
    <path d="M 129.13 243.16 
L 129.13 28.32 
" clip-path="url(#pd2ead66136)" style="fill: none; stroke: #000000; stroke-linecap: square"/>
   </g>
   <g id="line2d_30">
    <path d="M 181.000772 243.16 
L 181.000772 28.32 
" clip-path="url(#pd2ead66136)" style="fill: none; stroke-dasharray: 3.7,1.6; stroke-dashoffset: 0; stroke: #808080"/>
   </g>
   <g id="patch_13">
    <path d="M 129.13 243.16 
L 129.13 28.32 
" style="fill: none; stroke: #000000; stroke-width: 0.8; stroke-linejoin: miter; stroke-linecap: square"/>
   </g>
   <g id="patch_14">
    <path d="M 565.2 243.16 
L 565.2 28.32 
" style="fill: none; stroke: #000000; stroke-width: 0.8; stroke-linejoin: miter; stroke-linecap: square"/>
   </g>
   <g id="patch_15">
    <path d="M 129.13 243.16 
L 565.2 243.16 
" style="fill: none; stroke: #000000; stroke-width: 0.8; stroke-linejoin: miter; stroke-linecap: square"/>
   </g>
   <g id="patch_16">
    <path d="M 129.13 28.32 
L 565.2 28.32 
" style="fill: none; stroke: #000000; stroke-width: 0.8; stroke-linejoin: miter; stroke-linecap: square"/>
   </g>
   <g id="text_21">
    <!-- Average Right SbL $\beta$ by Language Family -->
    <g transform="translate(223.265 22.32) scale(0.12 -0.12)">
     <defs>
      <path id="DejaVuSans-79" d="M 2059 -325 
Q 1816 -950 1584 -1140 
Q 1353 -1331 966 -1331 
L 506 -1331 
L 506 -850 
L 844 -850 
Q 1081 -850 1212 -737 
Q 1344 -625 1503 -206 
L 1606 56 
L 191 3500 
L 800 3500 
L 1894 763 
L 2988 3500 
L 3597 3500 
L 2059 -325 
z
" transform="scale(0.015625)"/>
      <path id="DejaVuSans-46" d="M 628 4666 
L 3309 4666 
L 3309 4134 
L 1259 4134 
L 1259 2759 
L 3109 2759 
L 3109 2228 
L 1259 2228 
L 1259 0 
L 628 0 
L 628 4666 
z
" transform="scale(0.015625)"/>
      <path id="DejaVuSans-6d" d="M 3328 2828 
Q 3544 3216 3844 3400 
Q 4144 3584 4550 3584 
Q 5097 3584 5394 3201 
Q 5691 2819 5691 2113 
L 5691 0 
L 5113 0 
L 5113 2094 
Q 5113 2597 4934 2840 
Q 4756 3084 4391 3084 
Q 3944 3084 3684 2787 
Q 3425 2491 3425 1978 
L 3425 0 
L 2847 0 
L 2847 2094 
Q 2847 2600 2669 2842 
Q 2491 3084 2119 3084 
Q 1678 3084 1418 2786 
Q 1159 2488 1159 1978 
L 1159 0 
L 581 0 
L 581 3500 
L 1159 3500 
L 1159 2956 
Q 1356 3278 1631 3431 
Q 1906 3584 2284 3584 
Q 2666 3584 2933 3390 
Q 3200 3197 3328 2828 
z
" transform="scale(0.015625)"/>
     </defs>
     <use xlink:href="#DejaVuSans-41" transform="translate(0 0.390625)"/>
     <use xlink:href="#DejaVuSans-76" transform="translate(68.408203 0.390625)"/>
     <use xlink:href="#DejaVuSans-65" transform="translate(127.587891 0.390625)"/>
     <use xlink:href="#DejaVuSans-72" transform="translate(189.111328 0.390625)"/>
     <use xlink:href="#DejaVuSans-61" transform="translate(230.224609 0.390625)"/>
     <use xlink:href="#DejaVuSans-67" transform="translate(291.503906 0.390625)"/>
     <use xlink:href="#DejaVuSans-65" transform="translate(354.980469 0.390625)"/>
     <use xlink:href="#DejaVuSans-20" transform="translate(416.503906 0.390625)"/>
     <use xlink:href="#DejaVuSans-52" transform="translate(448.291016 0.390625)"/>
     <use xlink:href="#DejaVuSans-69" transform="translate(517.773438 0.390625)"/>
     <use xlink:href="#DejaVuSans-67" transform="translate(545.556641 0.390625)"/>
     <use xlink:href="#DejaVuSans-68" transform="translate(609.033203 0.390625)"/>
     <use xlink:href="#DejaVuSans-74" transform="translate(672.412109 0.390625)"/>
     <use xlink:href="#DejaVuSans-20" transform="translate(711.621094 0.390625)"/>
     <use xlink:href="#DejaVuSans-53" transform="translate(743.408203 0.390625)"/>
     <use xlink:href="#DejaVuSans-62" transform="translate(806.884766 0.390625)"/>
     <use xlink:href="#DejaVuSans-4c" transform="translate(870.361328 0.390625)"/>
     <use xlink:href="#DejaVuSans-20" transform="translate(926.074219 0.390625)"/>
     <use xlink:href="#DejaVuSans-Oblique-3b2" transform="translate(957.861328 0.390625)"/>
     <use xlink:href="#DejaVuSans-20" transform="translate(1021.679688 0.390625)"/>
     <use xlink:href="#DejaVuSans-62" transform="translate(1053.466797 0.390625)"/>
     <use xlink:href="#DejaVuSans-79" transform="translate(1116.943359 0.390625)"/>
     <use xlink:href="#DejaVuSans-20" transform="translate(1176.123047 0.390625)"/>
     <use xlink:href="#DejaVuSans-4c" transform="translate(1207.910156 0.390625)"/>
     <use xlink:href="#DejaVuSans-61" transform="translate(1263.623047 0.390625)"/>
     <use xlink:href="#DejaVuSans-6e" transform="translate(1324.902344 0.390625)"/>
     <use xlink:href="#DejaVuSans-67" transform="translate(1388.28125 0.390625)"/>
     <use xlink:href="#DejaVuSans-75" transform="translate(1451.757812 0.390625)"/>
     <use xlink:href="#DejaVuSans-61" transform="translate(1515.136719 0.390625)"/>
     <use xlink:href="#DejaVuSans-67" transform="translate(1576.416016 0.390625)"/>
     <use xlink:href="#DejaVuSans-65" transform="translate(1639.892578 0.390625)"/>
     <use xlink:href="#DejaVuSans-20" transform="translate(1701.416016 0.390625)"/>
     <use xlink:href="#DejaVuSans-46" transform="translate(1733.203125 0.390625)"/>
     <use xlink:href="#DejaVuSans-61" transform="translate(1790.722656 0.390625)"/>
     <use xlink:href="#DejaVuSans-6d" transform="translate(1852.001953 0.390625)"/>
     <use xlink:href="#DejaVuSans-69" transform="translate(1949.414062 0.390625)"/>
     <use xlink:href="#DejaVuSans-6c" transform="translate(1977.197266 0.390625)"/>
     <use xlink:href="#DejaVuSans-79" transform="translate(2004.980469 0.390625)"/>
    </g>
   </g>
  </g>
 </g>
 <defs>
  <clipPath id="pd2ead66136">
   <rect x="129.13" y="28.32" width="436.07" height="214.84"/>
  </clipPath>
 </defs>
</svg>
