<?xml version="1.0" encoding="utf-8" standalone="no"?>
<!DOCTYPE svg PUBLIC "-//W3C//DTD SVG 1.1//EN"
  "http://www.w3.org/Graphics/SVG/1.1/DTD/svg11.dtd">
<svg xmlns:xlink="http://www.w3.org/1999/xlink" width="712.37125pt" height="298.42825pt" viewBox="0 0 712.37125 298.42825" xmlns="http://www.w3.org/2000/svg" version="1.1">
 <metadata>
  <rdf:RDF xmlns:dc="http://purl.org/dc/elements/1.1/" xmlns:cc="http://creativecommons.org/ns#" xmlns:rdf="http://www.w3.org/1999/02/22-rdf-syntax-ns#">
   <cc:Work>
    <dc:type rdf:resource="http://purl.org/dc/dcmitype/StillImage"/>
    <dc:date>2026-06-05T00:32:11.487902</dc:date>
    <dc:format>image/svg+xml</dc:format>
    <dc:creator>
     <cc:Agent>
      <dc:title>Matplotlib v3.10.9, https://matplotlib.org/</dc:title>
     </cc:Agent>
    </dc:creator>
   </cc:Work>
  </rdf:RDF>
 </metadata>
 <defs>
  <style type="text/css">*{stroke-linejoin: round; stroke-linecap: butt}</style>
 </defs>
 <g id="figure_1">
  <g id="patch_1">
   <path d="M 0 298.42825 
L 712.37125 298.42825 
L 712.37125 0 
L 0 0 
z
" style="fill: #ffffff"/>
  </g>
  <g id="axes_1">
   <g id="patch_2">
    <path d="M 47.78125 256.872 
L 359.61125 256.872 
L 359.61125 59.392 
L 47.78125 59.392 
z
" style="fill: #ffffff"/>
   </g>
   <g id="matplotlib.axis_1">
    <g id="xtick_1">
     <g id="line2d_1">
      <path d="M 86.76 256.872 
L 86.76 59.392 
" clip-path="url(#p3d69cedf79)" style="fill: none; stroke-dasharray: 2.96,1.28; stroke-dashoffset: 0; stroke: #b0b0b0; stroke-opacity: 0.3; stroke-width: 0.8"/>
     </g>
     <g id="line2d_2">
      <defs>
       <path id="mb23c274bf2" d="M 0 0 
L 0 3.5 
" style="stroke: #000000; stroke-width: 0.8"/>
      </defs>
      <g>
       <use xlink:href="#mb23c274bf2" x="86.76" y="256.872" style="stroke: #000000; stroke-width: 0.8"/>
      </g>
     </g>
     <g id="text_1">
      <!-- 4 -->
      <g transform="translate(83.57875 271.470438) scale(0.1 -0.1)">
       <defs>
        <path id="DejaVuSans-34" d="M 2419 4116 
L 825 1625 
L 2419 1625 
L 2419 4116 
z
M 2253 4666 
L 3047 4666 
L 3047 1625 
L 3713 1625 
L 3713 1100 
L 3047 1100 
L 3047 0 
L 2419 0 
L 2419 1100 
L 313 1100 
L 313 1709 
L 2253 4666 
z
" transform="scale(0.015625)"/>
       </defs>
       <use xlink:href="#DejaVuSans-34"/>
      </g>
     </g>
    </g>
    <g id="xtick_2">
     <g id="line2d_3">
      <path d="M 164.7175 256.872 
L 164.7175 59.392 
" clip-path="url(#p3d69cedf79)" style="fill: none; stroke-dasharray: 2.96,1.28; stroke-dashoffset: 0; stroke: #b0b0b0; stroke-opacity: 0.3; stroke-width: 0.8"/>
     </g>
     <g id="line2d_4">
      <g>
       <use xlink:href="#mb23c274bf2" x="164.7175" y="256.872" style="stroke: #000000; stroke-width: 0.8"/>
      </g>
     </g>
     <g id="text_2">
      <!-- 3 -->
      <g transform="translate(161.53625 271.470438) scale(0.1 -0.1)">
       <defs>
        <path id="DejaVuSans-33" d="M 2597 2516 
Q 3050 2419 3304 2112 
Q 3559 1806 3559 1356 
Q 3559 666 3084 287 
Q 2609 -91 1734 -91 
Q 1441 -91 1130 -33 
Q 819 25 488 141 
L 488 750 
Q 750 597 1062 519 
Q 1375 441 1716 441 
Q 2309 441 2620 675 
Q 2931 909 2931 1356 
Q 2931 1769 2642 2001 
Q 2353 2234 1838 2234 
L 1294 2234 
L 1294 2753 
L 1863 2753 
Q 2328 2753 2575 2939 
Q 2822 3125 2822 3475 
Q 2822 3834 2567 4026 
Q 2313 4219 1838 4219 
Q 1578 4219 1281 4162 
Q 984 4106 628 3988 
L 628 4550 
Q 988 4650 1302 4700 
Q 1616 4750 1894 4750 
Q 2613 4750 3031 4423 
Q 3450 4097 3450 3541 
Q 3450 3153 3228 2886 
Q 3006 2619 2597 2516 
z
" transform="scale(0.015625)"/>
       </defs>
       <use xlink:href="#DejaVuSans-33"/>
      </g>
     </g>
    </g>
    <g id="xtick_3">
     <g id="line2d_5">
      <path d="M 242.675 256.872 
L 242.675 59.392 
" clip-path="url(#p3d69cedf79)" style="fill: none; stroke-dasharray: 2.96,1.28; stroke-dashoffset: 0; stroke: #b0b0b0; stroke-opacity: 0.3; stroke-width: 0.8"/>
     </g>
     <g id="line2d_6">
      <g>
       <use xlink:href="#mb23c274bf2" x="242.675" y="256.872" style="stroke: #000000; stroke-width: 0.8"/>
      </g>
     </g>
     <g id="text_3">
      <!-- 2 -->
      <g transform="translate(239.49375 271.470438) scale(0.1 -0.1)">
       <defs>
        <path id="DejaVuSans-32" d="M 1228 531 
L 3431 531 
L 3431 0 
L 469 0 
L 469 531 
Q 828 903 1448 1529 
Q 2069 2156 2228 2338 
Q 2531 2678 2651 2914 
Q 2772 3150 2772 3378 
Q 2772 3750 2511 3984 
Q 2250 4219 1831 4219 
Q 1534 4219 1204 4116 
Q 875 4013 500 3803 
L 500 4441 
Q 881 4594 1212 4672 
Q 1544 4750 1819 4750 
Q 2544 4750 2975 4387 
Q 3406 4025 3406 3419 
Q 3406 3131 3298 2873 
Q 3191 2616 2906 2266 
Q 2828 2175 2409 1742 
Q 1991 1309 1228 531 
z
" transform="scale(0.015625)"/>
       </defs>
       <use xlink:href="#DejaVuSans-32"/>
      </g>
     </g>
    </g>
    <g id="xtick_4">
     <g id="line2d_7">
      <path d="M 320.6325 256.872 
L 320.6325 59.392 
" clip-path="url(#p3d69cedf79)" style="fill: none; stroke-dasharray: 2.96,1.28; stroke-dashoffset: 0; stroke: #b0b0b0; stroke-opacity: 0.3; stroke-width: 0.8"/>
     </g>
     <g id="line2d_8">
      <g>
       <use xlink:href="#mb23c274bf2" x="320.6325" y="256.872" style="stroke: #000000; stroke-width: 0.8"/>
      </g>
     </g>
     <g id="text_4">
      <!-- 1 -->
      <g transform="translate(317.45125 271.470438) scale(0.1 -0.1)">
       <defs>
        <path id="DejaVuSans-31" d="M 794 531 
L 1825 531 
L 1825 4091 
L 703 3866 
L 703 4441 
L 1819 4666 
L 2450 4666 
L 2450 531 
L 3481 531 
L 3481 0 
L 794 0 
L 794 531 
z
" transform="scale(0.015625)"/>
       </defs>
       <use xlink:href="#DejaVuSans-31"/>
      </g>
     </g>
    </g>
    <g id="text_5">
     <!-- Visual Distance $k$ -->
     <g transform="translate(160.69625 289.148562) scale(0.1 -0.1)">
      <defs>
       <path id="DejaVuSans-56" d="M 1831 0 
L 50 4666 
L 709 4666 
L 2188 738 
L 3669 4666 
L 4325 4666 
L 2547 0 
L 1831 0 
z
" transform="scale(0.015625)"/>
       <path id="DejaVuSans-69" d="M 603 3500 
L 1178 3500 
L 1178 0 
L 603 0 
L 603 3500 
z
M 603 4863 
L 1178 4863 
L 1178 4134 
L 603 4134 
L 603 4863 
z
" transform="scale(0.015625)"/>
       <path id="DejaVuSans-73" d="M 2834 3397 
L 2834 2853 
Q 2591 2978 2328 3040 
Q 2066 3103 1784 3103 
Q 1356 3103 1142 2972 
Q 928 2841 928 2578 
Q 928 2378 1081 2264 
Q 1234 2150 1697 2047 
L 1894 2003 
Q 2506 1872 2764 1633 
Q 3022 1394 3022 966 
Q 3022 478 2636 193 
Q 2250 -91 1575 -91 
Q 1294 -91 989 -36 
Q 684 19 347 128 
L 347 722 
Q 666 556 975 473 
Q 1284 391 1588 391 
Q 1994 391 2212 530 
Q 2431 669 2431 922 
Q 2431 1156 2273 1281 
Q 2116 1406 1581 1522 
L 1381 1569 
Q 847 1681 609 1914 
Q 372 2147 372 2553 
Q 372 3047 722 3315 
Q 1072 3584 1716 3584 
Q 2034 3584 2315 3537 
Q 2597 3491 2834 3397 
z
" transform="scale(0.015625)"/>
       <path id="DejaVuSans-75" d="M 544 1381 
L 544 3500 
L 1119 3500 
L 1119 1403 
Q 1119 906 1312 657 
Q 1506 409 1894 409 
Q 2359 409 2629 706 
Q 2900 1003 2900 1516 
L 2900 3500 
L 3475 3500 
L 3475 0 
L 2900 0 
L 2900 538 
Q 2691 219 2414 64 
Q 2138 -91 1772 -91 
Q 1169 -91 856 284 
Q 544 659 544 1381 
z
M 1991 3584 
L 1991 3584 
z
" transform="scale(0.015625)"/>
       <path id="DejaVuSans-61" d="M 2194 1759 
Q 1497 1759 1228 1600 
Q 959 1441 959 1056 
Q 959 750 1161 570 
Q 1363 391 1709 391 
Q 2188 391 2477 730 
Q 2766 1069 2766 1631 
L 2766 1759 
L 2194 1759 
z
M 3341 1997 
L 3341 0 
L 2766 0 
L 2766 531 
Q 2569 213 2275 61 
Q 1981 -91 1556 -91 
Q 1019 -91 701 211 
Q 384 513 384 1019 
Q 384 1609 779 1909 
Q 1175 2209 1959 2209 
L 2766 2209 
L 2766 2266 
Q 2766 2663 2505 2880 
Q 2244 3097 1772 3097 
Q 1472 3097 1187 3025 
Q 903 2953 641 2809 
L 641 3341 
Q 956 3463 1253 3523 
Q 1550 3584 1831 3584 
Q 2591 3584 2966 3190 
Q 3341 2797 3341 1997 
z
" transform="scale(0.015625)"/>
       <path id="DejaVuSans-6c" d="M 603 4863 
L 1178 4863 
L 1178 0 
L 603 0 
L 603 4863 
z
" transform="scale(0.015625)"/>
       <path id="DejaVuSans-20" transform="scale(0.015625)"/>
       <path id="DejaVuSans-44" d="M 1259 4147 
L 1259 519 
L 2022 519 
Q 2988 519 3436 956 
Q 3884 1394 3884 2338 
Q 3884 3275 3436 3711 
Q 2988 4147 2022 4147 
L 1259 4147 
z
M 628 4666 
L 1925 4666 
Q 3281 4666 3915 4102 
Q 4550 3538 4550 2338 
Q 4550 1131 3912 565 
Q 3275 0 1925 0 
L 628 0 
L 628 4666 
z
" transform="scale(0.015625)"/>
       <path id="DejaVuSans-74" d="M 1172 4494 
L 1172 3500 
L 2356 3500 
L 2356 3053 
L 1172 3053 
L 1172 1153 
Q 1172 725 1289 603 
Q 1406 481 1766 481 
L 2356 481 
L 2356 0 
L 1766 0 
Q 1100 0 847 248 
Q 594 497 594 1153 
L 594 3053 
L 172 3053 
L 172 3500 
L 594 3500 
L 594 4494 
L 1172 4494 
z
" transform="scale(0.015625)"/>
       <path id="DejaVuSans-6e" d="M 3513 2113 
L 3513 0 
L 2938 0 
L 2938 2094 
Q 2938 2591 2744 2837 
Q 2550 3084 2163 3084 
Q 1697 3084 1428 2787 
Q 1159 2491 1159 1978 
L 1159 0 
L 581 0 
L 581 3500 
L 1159 3500 
L 1159 2956 
Q 1366 3272 1645 3428 
Q 1925 3584 2291 3584 
Q 2894 3584 3203 3211 
Q 3513 2838 3513 2113 
z
" transform="scale(0.015625)"/>
       <path id="DejaVuSans-63" d="M 3122 3366 
L 3122 2828 
Q 2878 2963 2633 3030 
Q 2388 3097 2138 3097 
Q 1578 3097 1268 2742 
Q 959 2388 959 1747 
Q 959 1106 1268 751 
Q 1578 397 2138 397 
Q 2388 397 2633 464 
Q 2878 531 3122 666 
L 3122 134 
Q 2881 22 2623 -34 
Q 2366 -91 2075 -91 
Q 1284 -91 818 406 
Q 353 903 353 1747 
Q 353 2603 823 3093 
Q 1294 3584 2113 3584 
Q 2378 3584 2631 3529 
Q 2884 3475 3122 3366 
z
" transform="scale(0.015625)"/>
       <path id="DejaVuSans-65" d="M 3597 1894 
L 3597 1613 
L 953 1613 
Q 991 1019 1311 708 
Q 1631 397 2203 397 
Q 2534 397 2845 478 
Q 3156 559 3463 722 
L 3463 178 
Q 3153 47 2828 -22 
Q 2503 -91 2169 -91 
Q 1331 -91 842 396 
Q 353 884 353 1716 
Q 353 2575 817 3079 
Q 1281 3584 2069 3584 
Q 2775 3584 3186 3129 
Q 3597 2675 3597 1894 
z
M 3022 2063 
Q 3016 2534 2758 2815 
Q 2500 3097 2075 3097 
Q 1594 3097 1305 2825 
Q 1016 2553 972 2059 
L 3022 2063 
z
" transform="scale(0.015625)"/>
       <path id="DejaVuSans-Oblique-6b" d="M 1172 4863 
L 1747 4863 
L 1197 2028 
L 3169 3500 
L 3916 3500 
L 1716 1825 
L 3322 0 
L 2625 0 
L 1131 1709 
L 800 0 
L 225 0 
L 1172 4863 
z
" transform="scale(0.015625)"/>
      </defs>
      <use xlink:href="#DejaVuSans-56" transform="translate(0 0.015625)"/>
      <use xlink:href="#DejaVuSans-69" transform="translate(68.408203 0.015625)"/>
      <use xlink:href="#DejaVuSans-73" transform="translate(96.191406 0.015625)"/>
      <use xlink:href="#DejaVuSans-75" transform="translate(148.291016 0.015625)"/>
      <use xlink:href="#DejaVuSans-61" transform="translate(211.669922 0.015625)"/>
      <use xlink:href="#DejaVuSans-6c" transform="translate(272.949219 0.015625)"/>
      <use xlink:href="#DejaVuSans-20" transform="translate(300.732422 0.015625)"/>
      <use xlink:href="#DejaVuSans-44" transform="translate(332.519531 0.015625)"/>
      <use xlink:href="#DejaVuSans-69" transform="translate(409.521484 0.015625)"/>
      <use xlink:href="#DejaVuSans-73" transform="translate(437.304688 0.015625)"/>
      <use xlink:href="#DejaVuSans-74" transform="translate(489.404297 0.015625)"/>
      <use xlink:href="#DejaVuSans-61" transform="translate(528.613281 0.015625)"/>
      <use xlink:href="#DejaVuSans-6e" transform="translate(589.892578 0.015625)"/>
      <use xlink:href="#DejaVuSans-63" transform="translate(653.271484 0.015625)"/>
      <use xlink:href="#DejaVuSans-65" transform="translate(708.251953 0.015625)"/>
      <use xlink:href="#DejaVuSans-20" transform="translate(769.775391 0.015625)"/>
      <use xlink:href="#DejaVuSans-Oblique-6b" transform="translate(801.5625 0.015625)"/>
     </g>
    </g>
   </g>
   <g id="matplotlib.axis_2">
    <g id="ytick_1">
     <g id="line2d_9">
      <path d="M 47.78125 251.020774 
L 359.61125 251.020774 
" clip-path="url(#p3d69cedf79)" style="fill: none; stroke-dasharray: 2.96,1.28; stroke-dashoffset: 0; stroke: #b0b0b0; stroke-opacity: 0.3; stroke-width: 0.8"/>
     </g>
     <g id="line2d_10">
      <defs>
       <path id="mf15a29e769" d="M 0 0 
L -3.5 0 
" style="stroke: #000000; stroke-width: 0.8"/>
      </defs>
      <g>
       <use xlink:href="#mf15a29e769" x="47.78125" y="251.020774" style="stroke: #000000; stroke-width: 0.8"/>
      </g>
     </g>
     <g id="text_6">
      <!-- 1.0 -->
      <g transform="translate(24.878125 254.819993) scale(0.1 -0.1)">
       <defs>
        <path id="DejaVuSans-2e" d="M 684 794 
L 1344 794 
L 1344 0 
L 684 0 
L 684 794 
z
" transform="scale(0.015625)"/>
        <path id="DejaVuSans-30" d="M 2034 4250 
Q 1547 4250 1301 3770 
Q 1056 3291 1056 2328 
Q 1056 1369 1301 889 
Q 1547 409 2034 409 
Q 2525 409 2770 889 
Q 3016 1369 3016 2328 
Q 3016 3291 2770 3770 
Q 2525 4250 2034 4250 
z
M 2034 4750 
Q 2819 4750 3233 4129 
Q 3647 3509 3647 2328 
Q 3647 1150 3233 529 
Q 2819 -91 2034 -91 
Q 1250 -91 836 529 
Q 422 1150 422 2328 
Q 422 3509 836 4129 
Q 1250 4750 2034 4750 
z
" transform="scale(0.015625)"/>
       </defs>
       <use xlink:href="#DejaVuSans-31"/>
       <use xlink:href="#DejaVuSans-2e" transform="translate(63.623047 0)"/>
       <use xlink:href="#DejaVuSans-30" transform="translate(95.410156 0)"/>
      </g>
     </g>
    </g>
    <g id="ytick_2">
     <g id="line2d_11">
      <path d="M 47.78125 228.524693 
L 359.61125 228.524693 
" clip-path="url(#p3d69cedf79)" style="fill: none; stroke-dasharray: 2.96,1.28; stroke-dashoffset: 0; stroke: #b0b0b0; stroke-opacity: 0.3; stroke-width: 0.8"/>
     </g>
     <g id="line2d_12">
      <g>
       <use xlink:href="#mf15a29e769" x="47.78125" y="228.524693" style="stroke: #000000; stroke-width: 0.8"/>
      </g>
     </g>
     <g id="text_7">
      <!-- 1.2 -->
      <g transform="translate(24.878125 232.323911) scale(0.1 -0.1)">
       <use xlink:href="#DejaVuSans-31"/>
       <use xlink:href="#DejaVuSans-2e" transform="translate(63.623047 0)"/>
       <use xlink:href="#DejaVuSans-32" transform="translate(95.410156 0)"/>
      </g>
     </g>
    </g>
    <g id="ytick_3">
     <g id="line2d_13">
      <path d="M 47.78125 206.028611 
L 359.61125 206.028611 
" clip-path="url(#p3d69cedf79)" style="fill: none; stroke-dasharray: 2.96,1.28; stroke-dashoffset: 0; stroke: #b0b0b0; stroke-opacity: 0.3; stroke-width: 0.8"/>
     </g>
     <g id="line2d_14">
      <g>
       <use xlink:href="#mf15a29e769" x="47.78125" y="206.028611" style="stroke: #000000; stroke-width: 0.8"/>
      </g>
     </g>
     <g id="text_8">
      <!-- 1.4 -->
      <g transform="translate(24.878125 209.82783) scale(0.1 -0.1)">
       <use xlink:href="#DejaVuSans-31"/>
       <use xlink:href="#DejaVuSans-2e" transform="translate(63.623047 0)"/>
       <use xlink:href="#DejaVuSans-34" transform="translate(95.410156 0)"/>
      </g>
     </g>
    </g>
    <g id="ytick_4">
     <g id="line2d_15">
      <path d="M 47.78125 183.532529 
L 359.61125 183.532529 
" clip-path="url(#p3d69cedf79)" style="fill: none; stroke-dasharray: 2.96,1.28; stroke-dashoffset: 0; stroke: #b0b0b0; stroke-opacity: 0.3; stroke-width: 0.8"/>
     </g>
     <g id="line2d_16">
      <g>
       <use xlink:href="#mf15a29e769" x="47.78125" y="183.532529" style="stroke: #000000; stroke-width: 0.8"/>
      </g>
     </g>
     <g id="text_9">
      <!-- 1.6 -->
      <g transform="translate(24.878125 187.331748) scale(0.1 -0.1)">
       <defs>
        <path id="DejaVuSans-36" d="M 2113 2584 
Q 1688 2584 1439 2293 
Q 1191 2003 1191 1497 
Q 1191 994 1439 701 
Q 1688 409 2113 409 
Q 2538 409 2786 701 
Q 3034 994 3034 1497 
Q 3034 2003 2786 2293 
Q 2538 2584 2113 2584 
z
M 3366 4563 
L 3366 3988 
Q 3128 4100 2886 4159 
Q 2644 4219 2406 4219 
Q 1781 4219 1451 3797 
Q 1122 3375 1075 2522 
Q 1259 2794 1537 2939 
Q 1816 3084 2150 3084 
Q 2853 3084 3261 2657 
Q 3669 2231 3669 1497 
Q 3669 778 3244 343 
Q 2819 -91 2113 -91 
Q 1303 -91 875 529 
Q 447 1150 447 2328 
Q 447 3434 972 4092 
Q 1497 4750 2381 4750 
Q 2619 4750 2861 4703 
Q 3103 4656 3366 4563 
z
" transform="scale(0.015625)"/>
       </defs>
       <use xlink:href="#DejaVuSans-31"/>
       <use xlink:href="#DejaVuSans-2e" transform="translate(63.623047 0)"/>
       <use xlink:href="#DejaVuSans-36" transform="translate(95.410156 0)"/>
      </g>
     </g>
    </g>
    <g id="ytick_5">
     <g id="line2d_17">
      <path d="M 47.78125 161.036447 
L 359.61125 161.036447 
" clip-path="url(#p3d69cedf79)" style="fill: none; stroke-dasharray: 2.96,1.28; stroke-dashoffset: 0; stroke: #b0b0b0; stroke-opacity: 0.3; stroke-width: 0.8"/>
     </g>
     <g id="line2d_18">
      <g>
       <use xlink:href="#mf15a29e769" x="47.78125" y="161.036447" style="stroke: #000000; stroke-width: 0.8"/>
      </g>
     </g>
     <g id="text_10">
      <!-- 1.8 -->
      <g transform="translate(24.878125 164.835666) scale(0.1 -0.1)">
       <defs>
        <path id="DejaVuSans-38" d="M 2034 2216 
Q 1584 2216 1326 1975 
Q 1069 1734 1069 1313 
Q 1069 891 1326 650 
Q 1584 409 2034 409 
Q 2484 409 2743 651 
Q 3003 894 3003 1313 
Q 3003 1734 2745 1975 
Q 2488 2216 2034 2216 
z
M 1403 2484 
Q 997 2584 770 2862 
Q 544 3141 544 3541 
Q 544 4100 942 4425 
Q 1341 4750 2034 4750 
Q 2731 4750 3128 4425 
Q 3525 4100 3525 3541 
Q 3525 3141 3298 2862 
Q 3072 2584 2669 2484 
Q 3125 2378 3379 2068 
Q 3634 1759 3634 1313 
Q 3634 634 3220 271 
Q 2806 -91 2034 -91 
Q 1263 -91 848 271 
Q 434 634 434 1313 
Q 434 1759 690 2068 
Q 947 2378 1403 2484 
z
M 1172 3481 
Q 1172 3119 1398 2916 
Q 1625 2713 2034 2713 
Q 2441 2713 2670 2916 
Q 2900 3119 2900 3481 
Q 2900 3844 2670 4047 
Q 2441 4250 2034 4250 
Q 1625 4250 1398 4047 
Q 1172 3844 1172 3481 
z
" transform="scale(0.015625)"/>
       </defs>
       <use xlink:href="#DejaVuSans-31"/>
       <use xlink:href="#DejaVuSans-2e" transform="translate(63.623047 0)"/>
       <use xlink:href="#DejaVuSans-38" transform="translate(95.410156 0)"/>
      </g>
     </g>
    </g>
    <g id="ytick_6">
     <g id="line2d_19">
      <path d="M 47.78125 138.540365 
L 359.61125 138.540365 
" clip-path="url(#p3d69cedf79)" style="fill: none; stroke-dasharray: 2.96,1.28; stroke-dashoffset: 0; stroke: #b0b0b0; stroke-opacity: 0.3; stroke-width: 0.8"/>
     </g>
     <g id="line2d_20">
      <g>
       <use xlink:href="#mf15a29e769" x="47.78125" y="138.540365" style="stroke: #000000; stroke-width: 0.8"/>
      </g>
     </g>
     <g id="text_11">
      <!-- 2.0 -->
      <g transform="translate(24.878125 142.339584) scale(0.1 -0.1)">
       <use xlink:href="#DejaVuSans-32"/>
       <use xlink:href="#DejaVuSans-2e" transform="translate(63.623047 0)"/>
       <use xlink:href="#DejaVuSans-30" transform="translate(95.410156 0)"/>
      </g>
     </g>
    </g>
    <g id="ytick_7">
     <g id="line2d_21">
      <path d="M 47.78125 116.044284 
L 359.61125 116.044284 
" clip-path="url(#p3d69cedf79)" style="fill: none; stroke-dasharray: 2.96,1.28; stroke-dashoffset: 0; stroke: #b0b0b0; stroke-opacity: 0.3; stroke-width: 0.8"/>
     </g>
     <g id="line2d_22">
      <g>
       <use xlink:href="#mf15a29e769" x="47.78125" y="116.044284" style="stroke: #000000; stroke-width: 0.8"/>
      </g>
     </g>
     <g id="text_12">
      <!-- 2.2 -->
      <g transform="translate(24.878125 119.843502) scale(0.1 -0.1)">
       <use xlink:href="#DejaVuSans-32"/>
       <use xlink:href="#DejaVuSans-2e" transform="translate(63.623047 0)"/>
       <use xlink:href="#DejaVuSans-32" transform="translate(95.410156 0)"/>
      </g>
     </g>
    </g>
    <g id="ytick_8">
     <g id="line2d_23">
      <path d="M 47.78125 93.548202 
L 359.61125 93.548202 
" clip-path="url(#p3d69cedf79)" style="fill: none; stroke-dasharray: 2.96,1.28; stroke-dashoffset: 0; stroke: #b0b0b0; stroke-opacity: 0.3; stroke-width: 0.8"/>
     </g>
     <g id="line2d_24">
      <g>
       <use xlink:href="#mf15a29e769" x="47.78125" y="93.548202" style="stroke: #000000; stroke-width: 0.8"/>
      </g>
     </g>
     <g id="text_13">
      <!-- 2.4 -->
      <g transform="translate(24.878125 97.34742) scale(0.1 -0.1)">
       <use xlink:href="#DejaVuSans-32"/>
       <use xlink:href="#DejaVuSans-2e" transform="translate(63.623047 0)"/>
       <use xlink:href="#DejaVuSans-34" transform="translate(95.410156 0)"/>
      </g>
     </g>
    </g>
    <g id="ytick_9">
     <g id="line2d_25">
      <path d="M 47.78125 71.05212 
L 359.61125 71.05212 
" clip-path="url(#p3d69cedf79)" style="fill: none; stroke-dasharray: 2.96,1.28; stroke-dashoffset: 0; stroke: #b0b0b0; stroke-opacity: 0.3; stroke-width: 0.8"/>
     </g>
     <g id="line2d_26">
      <g>
       <use xlink:href="#mf15a29e769" x="47.78125" y="71.05212" style="stroke: #000000; stroke-width: 0.8"/>
      </g>
     </g>
     <g id="text_14">
      <!-- 2.6 -->
      <g transform="translate(24.878125 74.851339) scale(0.1 -0.1)">
       <use xlink:href="#DejaVuSans-32"/>
       <use xlink:href="#DejaVuSans-2e" transform="translate(63.623047 0)"/>
       <use xlink:href="#DejaVuSans-36" transform="translate(95.410156 0)"/>
      </g>
     </g>
    </g>
    <g id="text_15">
     <!-- Average Size (words) -->
     <g transform="translate(14.798438 210.903875) rotate(-90) scale(0.1 -0.1)">
      <defs>
       <path id="DejaVuSans-41" d="M 2188 4044 
L 1331 1722 
L 3047 1722 
L 2188 4044 
z
M 1831 4666 
L 2547 4666 
L 4325 0 
L 3669 0 
L 3244 1197 
L 1141 1197 
L 716 0 
L 50 0 
L 1831 4666 
z
" transform="scale(0.015625)"/>
       <path id="DejaVuSans-76" d="M 191 3500 
L 800 3500 
L 1894 563 
L 2988 3500 
L 3597 3500 
L 2284 0 
L 1503 0 
L 191 3500 
z
" transform="scale(0.015625)"/>
       <path id="DejaVuSans-72" d="M 2631 2963 
Q 2534 3019 2420 3045 
Q 2306 3072 2169 3072 
Q 1681 3072 1420 2755 
Q 1159 2438 1159 1844 
L 1159 0 
L 581 0 
L 581 3500 
L 1159 3500 
L 1159 2956 
Q 1341 3275 1631 3429 
Q 1922 3584 2338 3584 
Q 2397 3584 2469 3576 
Q 2541 3569 2628 3553 
L 2631 2963 
z
" transform="scale(0.015625)"/>
       <path id="DejaVuSans-67" d="M 2906 1791 
Q 2906 2416 2648 2759 
Q 2391 3103 1925 3103 
Q 1463 3103 1205 2759 
Q 947 2416 947 1791 
Q 947 1169 1205 825 
Q 1463 481 1925 481 
Q 2391 481 2648 825 
Q 2906 1169 2906 1791 
z
M 3481 434 
Q 3481 -459 3084 -895 
Q 2688 -1331 1869 -1331 
Q 1566 -1331 1297 -1286 
Q 1028 -1241 775 -1147 
L 775 -588 
Q 1028 -725 1275 -790 
Q 1522 -856 1778 -856 
Q 2344 -856 2625 -561 
Q 2906 -266 2906 331 
L 2906 616 
Q 2728 306 2450 153 
Q 2172 0 1784 0 
Q 1141 0 747 490 
Q 353 981 353 1791 
Q 353 2603 747 3093 
Q 1141 3584 1784 3584 
Q 2172 3584 2450 3431 
Q 2728 3278 2906 2969 
L 2906 3500 
L 3481 3500 
L 3481 434 
z
" transform="scale(0.015625)"/>
       <path id="DejaVuSans-53" d="M 3425 4513 
L 3425 3897 
Q 3066 4069 2747 4153 
Q 2428 4238 2131 4238 
Q 1616 4238 1336 4038 
Q 1056 3838 1056 3469 
Q 1056 3159 1242 3001 
Q 1428 2844 1947 2747 
L 2328 2669 
Q 3034 2534 3370 2195 
Q 3706 1856 3706 1288 
Q 3706 609 3251 259 
Q 2797 -91 1919 -91 
Q 1588 -91 1214 -16 
Q 841 59 441 206 
L 441 856 
Q 825 641 1194 531 
Q 1563 422 1919 422 
Q 2459 422 2753 634 
Q 3047 847 3047 1241 
Q 3047 1584 2836 1778 
Q 2625 1972 2144 2069 
L 1759 2144 
Q 1053 2284 737 2584 
Q 422 2884 422 3419 
Q 422 4038 858 4394 
Q 1294 4750 2059 4750 
Q 2388 4750 2728 4690 
Q 3069 4631 3425 4513 
z
" transform="scale(0.015625)"/>
       <path id="DejaVuSans-7a" d="M 353 3500 
L 3084 3500 
L 3084 2975 
L 922 459 
L 3084 459 
L 3084 0 
L 275 0 
L 275 525 
L 2438 3041 
L 353 3041 
L 353 3500 
z
" transform="scale(0.015625)"/>
       <path id="DejaVuSans-28" d="M 1984 4856 
Q 1566 4138 1362 3434 
Q 1159 2731 1159 2009 
Q 1159 1288 1364 580 
Q 1569 -128 1984 -844 
L 1484 -844 
Q 1016 -109 783 600 
Q 550 1309 550 2009 
Q 550 2706 781 3412 
Q 1013 4119 1484 4856 
L 1984 4856 
z
" transform="scale(0.015625)"/>
       <path id="DejaVuSans-77" d="M 269 3500 
L 844 3500 
L 1563 769 
L 2278 3500 
L 2956 3500 
L 3675 769 
L 4391 3500 
L 4966 3500 
L 4050 0 
L 3372 0 
L 2619 2869 
L 1863 0 
L 1184 0 
L 269 3500 
z
" transform="scale(0.015625)"/>
       <path id="DejaVuSans-6f" d="M 1959 3097 
Q 1497 3097 1228 2736 
Q 959 2375 959 1747 
Q 959 1119 1226 758 
Q 1494 397 1959 397 
Q 2419 397 2687 759 
Q 2956 1122 2956 1747 
Q 2956 2369 2687 2733 
Q 2419 3097 1959 3097 
z
M 1959 3584 
Q 2709 3584 3137 3096 
Q 3566 2609 3566 1747 
Q 3566 888 3137 398 
Q 2709 -91 1959 -91 
Q 1206 -91 779 398 
Q 353 888 353 1747 
Q 353 2609 779 3096 
Q 1206 3584 1959 3584 
z
" transform="scale(0.015625)"/>
       <path id="DejaVuSans-64" d="M 2906 2969 
L 2906 4863 
L 3481 4863 
L 3481 0 
L 2906 0 
L 2906 525 
Q 2725 213 2448 61 
Q 2172 -91 1784 -91 
Q 1150 -91 751 415 
Q 353 922 353 1747 
Q 353 2572 751 3078 
Q 1150 3584 1784 3584 
Q 2172 3584 2448 3432 
Q 2725 3281 2906 2969 
z
M 947 1747 
Q 947 1113 1208 752 
Q 1469 391 1925 391 
Q 2381 391 2643 752 
Q 2906 1113 2906 1747 
Q 2906 2381 2643 2742 
Q 2381 3103 1925 3103 
Q 1469 3103 1208 2742 
Q 947 2381 947 1747 
z
" transform="scale(0.015625)"/>
       <path id="DejaVuSans-29" d="M 513 4856 
L 1013 4856 
Q 1481 4119 1714 3412 
Q 1947 2706 1947 2009 
Q 1947 1309 1714 600 
Q 1481 -109 1013 -844 
L 513 -844 
Q 928 -128 1133 580 
Q 1338 1288 1338 2009 
Q 1338 2731 1133 3434 
Q 928 4138 513 4856 
z
" transform="scale(0.015625)"/>
      </defs>
      <use xlink:href="#DejaVuSans-41"/>
      <use xlink:href="#DejaVuSans-76" transform="translate(62.533203 0)"/>
      <use xlink:href="#DejaVuSans-65" transform="translate(121.712891 0)"/>
      <use xlink:href="#DejaVuSans-72" transform="translate(183.236328 0)"/>
      <use xlink:href="#DejaVuSans-61" transform="translate(224.349609 0)"/>
      <use xlink:href="#DejaVuSans-67" transform="translate(285.628906 0)"/>
      <use xlink:href="#DejaVuSans-65" transform="translate(349.105469 0)"/>
      <use xlink:href="#DejaVuSans-20" transform="translate(410.628906 0)"/>
      <use xlink:href="#DejaVuSans-53" transform="translate(442.416016 0)"/>
      <use xlink:href="#DejaVuSans-69" transform="translate(505.892578 0)"/>
      <use xlink:href="#DejaVuSans-7a" transform="translate(533.675781 0)"/>
      <use xlink:href="#DejaVuSans-65" transform="translate(586.166016 0)"/>
      <use xlink:href="#DejaVuSans-20" transform="translate(647.689453 0)"/>
      <use xlink:href="#DejaVuSans-28" transform="translate(679.476562 0)"/>
      <use xlink:href="#DejaVuSans-77" transform="translate(718.490234 0)"/>
      <use xlink:href="#DejaVuSans-6f" transform="translate(800.277344 0)"/>
      <use xlink:href="#DejaVuSans-72" transform="translate(861.458984 0)"/>
      <use xlink:href="#DejaVuSans-64" transform="translate(900.822266 0)"/>
      <use xlink:href="#DejaVuSans-73" transform="translate(964.298828 0)"/>
      <use xlink:href="#DejaVuSans-29" transform="translate(1016.398438 0)"/>
     </g>
    </g>
   </g>
   <g id="line2d_27">
    <path d="M 320.6325 174.985754 
" clip-path="url(#p3d69cedf79)" style="fill: none; stroke: #9c27b0; stroke-opacity: 0.7; stroke-width: 2; stroke-linecap: square"/>
    <defs>
     <path id="m7e7399386b" d="M -0 3 
L 3 -3 
L -3 -3 
z
" style="stroke: #9c27b0; stroke-opacity: 0.7; stroke-linejoin: miter"/>
    </defs>
    <g clip-path="url(#p3d69cedf79)">
     <use xlink:href="#m7e7399386b" x="320.6325" y="174.985754" style="fill: #9c27b0; fill-opacity: 0.7; stroke: #9c27b0; stroke-opacity: 0.7; stroke-linejoin: miter"/>
    </g>
   </g>
   <g id="line2d_28">
    <path d="M 320.6325 179.903163 
L 242.675 111.825568 
" clip-path="url(#p3d69cedf79)" style="fill: none; stroke: #2196f3; stroke-opacity: 0.7; stroke-width: 2; stroke-linecap: square"/>
    <defs>
     <path id="m69e56ad6bb" d="M 0 3 
C 0.795609 3 1.55874 2.683901 2.12132 2.12132 
C 2.683901 1.55874 3 0.795609 3 0 
C 3 -0.795609 2.683901 -1.55874 2.12132 -2.12132 
C 1.55874 -2.683901 0.795609 -3 0 -3 
C -0.795609 -3 -1.55874 -2.683901 -2.12132 -2.12132 
C -2.683901 -1.55874 -3 -0.795609 -3 0 
C -3 0.795609 -2.683901 1.55874 -2.12132 2.12132 
C -1.55874 2.683901 -0.795609 3 0 3 
z
" style="stroke: #2196f3; stroke-opacity: 0.7"/>
    </defs>
    <g clip-path="url(#p3d69cedf79)">
     <use xlink:href="#m69e56ad6bb" x="320.6325" y="179.903163" style="fill: #2196f3; fill-opacity: 0.7; stroke: #2196f3; stroke-opacity: 0.7"/>
     <use xlink:href="#m69e56ad6bb" x="242.675" y="111.825568" style="fill: #2196f3; fill-opacity: 0.7; stroke: #2196f3; stroke-opacity: 0.7"/>
    </g>
   </g>
   <g id="line2d_29">
    <path d="M 320.6325 204.096886 
L 242.675 90.091771 
L 164.7175 92.761021 
" clip-path="url(#p3d69cedf79)" style="fill: none; stroke: #ff9800; stroke-opacity: 0.7; stroke-width: 2; stroke-linecap: square"/>
    <defs>
     <path id="m0258394df8" d="M -3 3 
L 3 3 
L 3 -3 
L -3 -3 
z
" style="stroke: #ff9800; stroke-opacity: 0.7; stroke-linejoin: miter"/>
    </defs>
    <g clip-path="url(#p3d69cedf79)">
     <use xlink:href="#m0258394df8" x="320.6325" y="204.096886" style="fill: #ff9800; fill-opacity: 0.7; stroke: #ff9800; stroke-opacity: 0.7; stroke-linejoin: miter"/>
     <use xlink:href="#m0258394df8" x="242.675" y="90.091771" style="fill: #ff9800; fill-opacity: 0.7; stroke: #ff9800; stroke-opacity: 0.7; stroke-linejoin: miter"/>
     <use xlink:href="#m0258394df8" x="164.7175" y="92.761021" style="fill: #ff9800; fill-opacity: 0.7; stroke: #ff9800; stroke-opacity: 0.7; stroke-linejoin: miter"/>
    </g>
   </g>
   <g id="line2d_30">
    <path d="M 320.6325 199.95857 
L 242.675 92.281685 
L 164.7175 99.99816 
L 86.76 76.264061 
" clip-path="url(#p3d69cedf79)" style="fill: none; stroke: #4caf50; stroke-opacity: 0.7; stroke-width: 2; stroke-linecap: square"/>
    <defs>
     <path id="m0a22596d50" d="M -0 4.242641 
L 2.545584 0 
L 0 -4.242641 
L -2.545584 -0 
z
" style="stroke: #4caf50; stroke-opacity: 0.7; stroke-linejoin: miter"/>
    </defs>
    <g clip-path="url(#p3d69cedf79)">
     <use xlink:href="#m0a22596d50" x="320.6325" y="199.95857" style="fill: #4caf50; fill-opacity: 0.7; stroke: #4caf50; stroke-opacity: 0.7; stroke-linejoin: miter"/>
     <use xlink:href="#m0a22596d50" x="242.675" y="92.281685" style="fill: #4caf50; fill-opacity: 0.7; stroke: #4caf50; stroke-opacity: 0.7; stroke-linejoin: miter"/>
     <use xlink:href="#m0a22596d50" x="164.7175" y="99.99816" style="fill: #4caf50; fill-opacity: 0.7; stroke: #4caf50; stroke-opacity: 0.7; stroke-linejoin: miter"/>
     <use xlink:href="#m0a22596d50" x="86.76" y="76.264061" style="fill: #4caf50; fill-opacity: 0.7; stroke: #4caf50; stroke-opacity: 0.7; stroke-linejoin: miter"/>
    </g>
   </g>
   <g id="patch_3">
    <path d="M 47.78125 256.872 
L 47.78125 59.392 
" style="fill: none; stroke: #bbbbbb; stroke-width: 0.8; stroke-linejoin: miter; stroke-linecap: square"/>
   </g>
   <g id="patch_4">
    <path d="M 47.78125 256.872 
L 359.61125 256.872 
" style="fill: none; stroke: #bbbbbb; stroke-width: 0.8; stroke-linejoin: miter; stroke-linecap: square"/>
   </g>
   <g id="text_16">
    <!-- Left Side ($L_n^k$) -->
    <g style="fill: #333333" transform="translate(159.53625 49.392) scale(0.12 -0.12)">
     <defs>
      <path id="DejaVuSans-Bold-4c" d="M 588 4666 
L 1791 4666 
L 1791 909 
L 3903 909 
L 3903 0 
L 588 0 
L 588 4666 
z
" transform="scale(0.015625)"/>
      <path id="DejaVuSans-Bold-65" d="M 4031 1759 
L 4031 1441 
L 1416 1441 
Q 1456 1047 1700 850 
Q 1944 653 2381 653 
Q 2734 653 3104 758 
Q 3475 863 3866 1075 
L 3866 213 
Q 3469 63 3072 -14 
Q 2675 -91 2278 -91 
Q 1328 -91 801 392 
Q 275 875 275 1747 
Q 275 2603 792 3093 
Q 1309 3584 2216 3584 
Q 3041 3584 3536 3087 
Q 4031 2591 4031 1759 
z
M 2881 2131 
Q 2881 2450 2695 2645 
Q 2509 2841 2209 2841 
Q 1884 2841 1681 2658 
Q 1478 2475 1428 2131 
L 2881 2131 
z
" transform="scale(0.015625)"/>
      <path id="DejaVuSans-Bold-66" d="M 2841 4863 
L 2841 4128 
L 2222 4128 
Q 1984 4128 1890 4042 
Q 1797 3956 1797 3744 
L 1797 3500 
L 2753 3500 
L 2753 2700 
L 1797 2700 
L 1797 0 
L 678 0 
L 678 2700 
L 122 2700 
L 122 3500 
L 678 3500 
L 678 3744 
Q 678 4316 997 4589 
Q 1316 4863 1984 4863 
L 2841 4863 
z
" transform="scale(0.015625)"/>
      <path id="DejaVuSans-Bold-74" d="M 1759 4494 
L 1759 3500 
L 2913 3500 
L 2913 2700 
L 1759 2700 
L 1759 1216 
Q 1759 972 1856 886 
Q 1953 800 2241 800 
L 2816 800 
L 2816 0 
L 1856 0 
Q 1194 0 917 276 
Q 641 553 641 1216 
L 641 2700 
L 84 2700 
L 84 3500 
L 641 3500 
L 641 4494 
L 1759 4494 
z
" transform="scale(0.015625)"/>
      <path id="DejaVuSans-Bold-20" transform="scale(0.015625)"/>
      <path id="DejaVuSans-Bold-53" d="M 3834 4519 
L 3834 3531 
Q 3450 3703 3084 3790 
Q 2719 3878 2394 3878 
Q 1963 3878 1756 3759 
Q 1550 3641 1550 3391 
Q 1550 3203 1689 3098 
Q 1828 2994 2194 2919 
L 2706 2816 
Q 3484 2659 3812 2340 
Q 4141 2022 4141 1434 
Q 4141 663 3683 286 
Q 3225 -91 2284 -91 
Q 1841 -91 1394 -6 
Q 947 78 500 244 
L 500 1259 
Q 947 1022 1364 901 
Q 1781 781 2169 781 
Q 2563 781 2772 912 
Q 2981 1044 2981 1288 
Q 2981 1506 2839 1625 
Q 2697 1744 2272 1838 
L 1806 1941 
Q 1106 2091 782 2419 
Q 459 2747 459 3303 
Q 459 4000 909 4375 
Q 1359 4750 2203 4750 
Q 2588 4750 2994 4692 
Q 3400 4634 3834 4519 
z
" transform="scale(0.015625)"/>
      <path id="DejaVuSans-Bold-69" d="M 538 3500 
L 1656 3500 
L 1656 0 
L 538 0 
L 538 3500 
z
M 538 4863 
L 1656 4863 
L 1656 3950 
L 538 3950 
L 538 4863 
z
" transform="scale(0.015625)"/>
      <path id="DejaVuSans-Bold-64" d="M 2919 2988 
L 2919 4863 
L 4044 4863 
L 4044 0 
L 2919 0 
L 2919 506 
Q 2688 197 2409 53 
Q 2131 -91 1766 -91 
Q 1119 -91 703 423 
Q 288 938 288 1747 
Q 288 2556 703 3070 
Q 1119 3584 1766 3584 
Q 2128 3584 2408 3439 
Q 2688 3294 2919 2988 
z
M 2181 722 
Q 2541 722 2730 984 
Q 2919 1247 2919 1747 
Q 2919 2247 2730 2509 
Q 2541 2772 2181 2772 
Q 1825 2772 1636 2509 
Q 1447 2247 1447 1747 
Q 1447 1247 1636 984 
Q 1825 722 2181 722 
z
" transform="scale(0.015625)"/>
      <path id="DejaVuSans-Bold-28" d="M 2413 -844 
L 1484 -844 
Q 1006 -72 778 623 
Q 550 1319 550 2003 
Q 550 2688 779 3389 
Q 1009 4091 1484 4856 
L 2413 4856 
Q 2013 4116 1813 3408 
Q 1613 2700 1613 2009 
Q 1613 1319 1811 609 
Q 2009 -100 2413 -844 
z
" transform="scale(0.015625)"/>
      <path id="DejaVuSans-Oblique-4c" d="M 1075 4666 
L 1709 4666 
L 909 525 
L 3181 525 
L 3078 0 
L 172 0 
L 1075 4666 
z
" transform="scale(0.015625)"/>
      <path id="DejaVuSans-Oblique-6e" d="M 3566 2113 
L 3156 0 
L 2578 0 
L 2988 2091 
Q 3016 2238 3031 2350 
Q 3047 2463 3047 2528 
Q 3047 2791 2881 2937 
Q 2716 3084 2419 3084 
Q 1956 3084 1622 2776 
Q 1288 2469 1184 1941 
L 800 0 
L 225 0 
L 903 3500 
L 1478 3500 
L 1363 2950 
Q 1603 3253 1940 3418 
Q 2278 3584 2650 3584 
Q 3113 3584 3367 3334 
Q 3622 3084 3622 2631 
Q 3622 2519 3608 2391 
Q 3594 2263 3566 2113 
z
" transform="scale(0.015625)"/>
      <path id="DejaVuSans-Bold-29" d="M 513 -844 
Q 913 -100 1113 609 
Q 1313 1319 1313 2009 
Q 1313 2700 1113 3408 
Q 913 4116 513 4856 
L 1441 4856 
Q 1916 4091 2145 3389 
Q 2375 2688 2375 2003 
Q 2375 1319 2147 623 
Q 1919 -72 1441 -844 
L 513 -844 
z
" transform="scale(0.015625)"/>
     </defs>
     <use xlink:href="#DejaVuSans-Bold-4c" transform="translate(0 0.529687)"/>
     <use xlink:href="#DejaVuSans-Bold-65" transform="translate(63.720703 0.529687)"/>
     <use xlink:href="#DejaVuSans-Bold-66" transform="translate(131.542969 0.529687)"/>
     <use xlink:href="#DejaVuSans-Bold-74" transform="translate(175.048828 0.529687)"/>
     <use xlink:href="#DejaVuSans-Bold-20" transform="translate(222.851562 0.529687)"/>
     <use xlink:href="#DejaVuSans-Bold-53" transform="translate(257.666016 0.529687)"/>
     <use xlink:href="#DejaVuSans-Bold-69" transform="translate(329.6875 0.529687)"/>
     <use xlink:href="#DejaVuSans-Bold-64" transform="translate(363.964844 0.529687)"/>
     <use xlink:href="#DejaVuSans-Bold-65" transform="translate(435.546875 0.529687)"/>
     <use xlink:href="#DejaVuSans-Bold-20" transform="translate(503.369141 0.529687)"/>
     <use xlink:href="#DejaVuSans-Bold-28" transform="translate(538.183594 0.529687)"/>
     <use xlink:href="#DejaVuSans-Oblique-4c" transform="translate(583.886719 0.529687)"/>
     <use xlink:href="#DejaVuSans-Oblique-6b" transform="translate(646.61638 38.810938) scale(0.7)"/>
     <use xlink:href="#DejaVuSans-Oblique-6e" transform="translate(639.599609 -26.814063) scale(0.7)"/>
     <use xlink:href="#DejaVuSans-Bold-29" transform="translate(689.887865 0.529687)"/>
    </g>
   </g>
   <g id="legend_1">
    <g id="patch_5">
     <path d="M 293.175313 126.1045 
L 352.61125 126.1045 
Q 354.61125 126.1045 354.61125 124.1045 
L 354.61125 66.392 
Q 354.61125 64.392 352.61125 64.392 
L 293.175313 64.392 
Q 291.175313 64.392 291.175313 66.392 
L 291.175313 124.1045 
Q 291.175313 126.1045 293.175313 126.1045 
z
" style="fill: #ffffff; opacity: 0.8; stroke: #eeeeee; stroke-linejoin: miter"/>
    </g>
    <g id="line2d_31">
     <path d="M 295.175313 72.490438 
L 305.175313 72.490438 
L 315.175313 72.490438 
" style="fill: none; stroke: #9c27b0; stroke-opacity: 0.7; stroke-width: 2; stroke-linecap: square"/>
     <g>
      <use xlink:href="#m7e7399386b" x="305.175313" y="72.490438" style="fill: #9c27b0; fill-opacity: 0.7; stroke: #9c27b0; stroke-opacity: 0.7; stroke-linejoin: miter"/>
     </g>
    </g>
    <g id="text_17">
     <!-- n = 1 -->
     <g transform="translate(323.175313 75.990438) scale(0.1 -0.1)">
      <defs>
       <path id="DejaVuSans-3d" d="M 678 2906 
L 4684 2906 
L 4684 2381 
L 678 2381 
L 678 2906 
z
M 678 1631 
L 4684 1631 
L 4684 1100 
L 678 1100 
L 678 1631 
z
" transform="scale(0.015625)"/>
      </defs>
      <use xlink:href="#DejaVuSans-6e"/>
      <use xlink:href="#DejaVuSans-20" transform="translate(63.378906 0)"/>
      <use xlink:href="#DejaVuSans-3d" transform="translate(95.166016 0)"/>
      <use xlink:href="#DejaVuSans-20" transform="translate(178.955078 0)"/>
      <use xlink:href="#DejaVuSans-31" transform="translate(210.742188 0)"/>
     </g>
    </g>
    <g id="line2d_32">
     <path d="M 295.175313 87.168563 
L 305.175313 87.168563 
L 315.175313 87.168563 
" style="fill: none; stroke: #2196f3; stroke-opacity: 0.7; stroke-width: 2; stroke-linecap: square"/>
     <g>
      <use xlink:href="#m69e56ad6bb" x="305.175313" y="87.168563" style="fill: #2196f3; fill-opacity: 0.7; stroke: #2196f3; stroke-opacity: 0.7"/>
     </g>
    </g>
    <g id="text_18">
     <!-- n = 2 -->
     <g transform="translate(323.175313 90.668563) scale(0.1 -0.1)">
      <use xlink:href="#DejaVuSans-6e"/>
      <use xlink:href="#DejaVuSans-20" transform="translate(63.378906 0)"/>
      <use xlink:href="#DejaVuSans-3d" transform="translate(95.166016 0)"/>
      <use xlink:href="#DejaVuSans-20" transform="translate(178.955078 0)"/>
      <use xlink:href="#DejaVuSans-32" transform="translate(210.742188 0)"/>
     </g>
    </g>
    <g id="line2d_33">
     <path d="M 295.175313 101.846688 
L 305.175313 101.846688 
L 315.175313 101.846688 
" style="fill: none; stroke: #ff9800; stroke-opacity: 0.7; stroke-width: 2; stroke-linecap: square"/>
     <g>
      <use xlink:href="#m0258394df8" x="305.175313" y="101.846688" style="fill: #ff9800; fill-opacity: 0.7; stroke: #ff9800; stroke-opacity: 0.7; stroke-linejoin: miter"/>
     </g>
    </g>
    <g id="text_19">
     <!-- n = 3 -->
     <g transform="translate(323.175313 105.346688) scale(0.1 -0.1)">
      <use xlink:href="#DejaVuSans-6e"/>
      <use xlink:href="#DejaVuSans-20" transform="translate(63.378906 0)"/>
      <use xlink:href="#DejaVuSans-3d" transform="translate(95.166016 0)"/>
      <use xlink:href="#DejaVuSans-20" transform="translate(178.955078 0)"/>
      <use xlink:href="#DejaVuSans-33" transform="translate(210.742188 0)"/>
     </g>
    </g>
    <g id="line2d_34">
     <path d="M 295.175313 116.524813 
L 305.175313 116.524813 
L 315.175313 116.524813 
" style="fill: none; stroke: #4caf50; stroke-opacity: 0.7; stroke-width: 2; stroke-linecap: square"/>
     <g>
      <use xlink:href="#m0a22596d50" x="305.175313" y="116.524813" style="fill: #4caf50; fill-opacity: 0.7; stroke: #4caf50; stroke-opacity: 0.7; stroke-linejoin: miter"/>
     </g>
    </g>
    <g id="text_20">
     <!-- n = 4 -->
     <g transform="translate(323.175313 120.024813) scale(0.1 -0.1)">
      <use xlink:href="#DejaVuSans-6e"/>
      <use xlink:href="#DejaVuSans-20" transform="translate(63.378906 0)"/>
      <use xlink:href="#DejaVuSans-3d" transform="translate(95.166016 0)"/>
      <use xlink:href="#DejaVuSans-20" transform="translate(178.955078 0)"/>
      <use xlink:href="#DejaVuSans-34" transform="translate(210.742188 0)"/>
     </g>
    </g>
   </g>
  </g>
  <g id="axes_2">
   <g id="patch_6">
    <path d="M 393.34125 256.872 
L 705.17125 256.872 
L 705.17125 59.392 
L 393.34125 59.392 
z
" style="fill: #ffffff"/>
   </g>
   <g id="matplotlib.axis_3">
    <g id="xtick_5">
     <g id="line2d_35">
      <path d="M 432.32 256.872 
L 432.32 59.392 
" clip-path="url(#p56385fac64)" style="fill: none; stroke-dasharray: 2.96,1.28; stroke-dashoffset: 0; stroke: #b0b0b0; stroke-opacity: 0.3; stroke-width: 0.8"/>
     </g>
     <g id="line2d_36">
      <g>
       <use xlink:href="#mb23c274bf2" x="432.32" y="256.872" style="stroke: #000000; stroke-width: 0.8"/>
      </g>
     </g>
     <g id="text_21">
      <!-- 1 -->
      <g transform="translate(429.13875 271.470438) scale(0.1 -0.1)">
       <use xlink:href="#DejaVuSans-31"/>
      </g>
     </g>
    </g>
    <g id="xtick_6">
     <g id="line2d_37">
      <path d="M 510.2775 256.872 
L 510.2775 59.392 
" clip-path="url(#p56385fac64)" style="fill: none; stroke-dasharray: 2.96,1.28; stroke-dashoffset: 0; stroke: #b0b0b0; stroke-opacity: 0.3; stroke-width: 0.8"/>
     </g>
     <g id="line2d_38">
      <g>
       <use xlink:href="#mb23c274bf2" x="510.2775" y="256.872" style="stroke: #000000; stroke-width: 0.8"/>
      </g>
     </g>
     <g id="text_22">
      <!-- 2 -->
      <g transform="translate(507.09625 271.470438) scale(0.1 -0.1)">
       <use xlink:href="#DejaVuSans-32"/>
      </g>
     </g>
    </g>
    <g id="xtick_7">
     <g id="line2d_39">
      <path d="M 588.235 256.872 
L 588.235 59.392 
" clip-path="url(#p56385fac64)" style="fill: none; stroke-dasharray: 2.96,1.28; stroke-dashoffset: 0; stroke: #b0b0b0; stroke-opacity: 0.3; stroke-width: 0.8"/>
     </g>
     <g id="line2d_40">
      <g>
       <use xlink:href="#mb23c274bf2" x="588.235" y="256.872" style="stroke: #000000; stroke-width: 0.8"/>
      </g>
     </g>
     <g id="text_23">
      <!-- 3 -->
      <g transform="translate(585.05375 271.470438) scale(0.1 -0.1)">
       <use xlink:href="#DejaVuSans-33"/>
      </g>
     </g>
    </g>
    <g id="xtick_8">
     <g id="line2d_41">
      <path d="M 666.1925 256.872 
L 666.1925 59.392 
" clip-path="url(#p56385fac64)" style="fill: none; stroke-dasharray: 2.96,1.28; stroke-dashoffset: 0; stroke: #b0b0b0; stroke-opacity: 0.3; stroke-width: 0.8"/>
     </g>
     <g id="line2d_42">
      <g>
       <use xlink:href="#mb23c274bf2" x="666.1925" y="256.872" style="stroke: #000000; stroke-width: 0.8"/>
      </g>
     </g>
     <g id="text_24">
      <!-- 4 -->
      <g transform="translate(663.01125 271.470438) scale(0.1 -0.1)">
       <use xlink:href="#DejaVuSans-34"/>
      </g>
     </g>
    </g>
    <g id="text_25">
     <!-- Visual Distance $k$ -->
     <g transform="translate(506.25625 289.148562) scale(0.1 -0.1)">
      <use xlink:href="#DejaVuSans-56" transform="translate(0 0.015625)"/>
      <use xlink:href="#DejaVuSans-69" transform="translate(68.408203 0.015625)"/>
      <use xlink:href="#DejaVuSans-73" transform="translate(96.191406 0.015625)"/>
      <use xlink:href="#DejaVuSans-75" transform="translate(148.291016 0.015625)"/>
      <use xlink:href="#DejaVuSans-61" transform="translate(211.669922 0.015625)"/>
      <use xlink:href="#DejaVuSans-6c" transform="translate(272.949219 0.015625)"/>
      <use xlink:href="#DejaVuSans-20" transform="translate(300.732422 0.015625)"/>
      <use xlink:href="#DejaVuSans-44" transform="translate(332.519531 0.015625)"/>
      <use xlink:href="#DejaVuSans-69" transform="translate(409.521484 0.015625)"/>
      <use xlink:href="#DejaVuSans-73" transform="translate(437.304688 0.015625)"/>
      <use xlink:href="#DejaVuSans-74" transform="translate(489.404297 0.015625)"/>
      <use xlink:href="#DejaVuSans-61" transform="translate(528.613281 0.015625)"/>
      <use xlink:href="#DejaVuSans-6e" transform="translate(589.892578 0.015625)"/>
      <use xlink:href="#DejaVuSans-63" transform="translate(653.271484 0.015625)"/>
      <use xlink:href="#DejaVuSans-65" transform="translate(708.251953 0.015625)"/>
      <use xlink:href="#DejaVuSans-20" transform="translate(769.775391 0.015625)"/>
      <use xlink:href="#DejaVuSans-Oblique-6b" transform="translate(801.5625 0.015625)"/>
     </g>
    </g>
   </g>
   <g id="matplotlib.axis_4">
    <g id="ytick_10">
     <g id="line2d_43">
      <path d="M 393.34125 251.020774 
L 705.17125 251.020774 
" clip-path="url(#p56385fac64)" style="fill: none; stroke-dasharray: 2.96,1.28; stroke-dashoffset: 0; stroke: #b0b0b0; stroke-opacity: 0.3; stroke-width: 0.8"/>
     </g>
     <g id="line2d_44">
      <g>
       <use xlink:href="#mf15a29e769" x="393.34125" y="251.020774" style="stroke: #000000; stroke-width: 0.8"/>
      </g>
     </g>
     <g id="text_26">
      <!-- 1.0 -->
      <g transform="translate(370.438125 254.819993) scale(0.1 -0.1)">
       <use xlink:href="#DejaVuSans-31"/>
       <use xlink:href="#DejaVuSans-2e" transform="translate(63.623047 0)"/>
       <use xlink:href="#DejaVuSans-30" transform="translate(95.410156 0)"/>
      </g>
     </g>
    </g>
    <g id="ytick_11">
     <g id="line2d_45">
      <path d="M 393.34125 228.524693 
L 705.17125 228.524693 
" clip-path="url(#p56385fac64)" style="fill: none; stroke-dasharray: 2.96,1.28; stroke-dashoffset: 0; stroke: #b0b0b0; stroke-opacity: 0.3; stroke-width: 0.8"/>
     </g>
     <g id="line2d_46">
      <g>
       <use xlink:href="#mf15a29e769" x="393.34125" y="228.524693" style="stroke: #000000; stroke-width: 0.8"/>
      </g>
     </g>
     <g id="text_27">
      <!-- 1.2 -->
      <g transform="translate(370.438125 232.323911) scale(0.1 -0.1)">
       <use xlink:href="#DejaVuSans-31"/>
       <use xlink:href="#DejaVuSans-2e" transform="translate(63.623047 0)"/>
       <use xlink:href="#DejaVuSans-32" transform="translate(95.410156 0)"/>
      </g>
     </g>
    </g>
    <g id="ytick_12">
     <g id="line2d_47">
      <path d="M 393.34125 206.028611 
L 705.17125 206.028611 
" clip-path="url(#p56385fac64)" style="fill: none; stroke-dasharray: 2.96,1.28; stroke-dashoffset: 0; stroke: #b0b0b0; stroke-opacity: 0.3; stroke-width: 0.8"/>
     </g>
     <g id="line2d_48">
      <g>
       <use xlink:href="#mf15a29e769" x="393.34125" y="206.028611" style="stroke: #000000; stroke-width: 0.8"/>
      </g>
     </g>
     <g id="text_28">
      <!-- 1.4 -->
      <g transform="translate(370.438125 209.82783) scale(0.1 -0.1)">
       <use xlink:href="#DejaVuSans-31"/>
       <use xlink:href="#DejaVuSans-2e" transform="translate(63.623047 0)"/>
       <use xlink:href="#DejaVuSans-34" transform="translate(95.410156 0)"/>
      </g>
     </g>
    </g>
    <g id="ytick_13">
     <g id="line2d_49">
      <path d="M 393.34125 183.532529 
L 705.17125 183.532529 
" clip-path="url(#p56385fac64)" style="fill: none; stroke-dasharray: 2.96,1.28; stroke-dashoffset: 0; stroke: #b0b0b0; stroke-opacity: 0.3; stroke-width: 0.8"/>
     </g>
     <g id="line2d_50">
      <g>
       <use xlink:href="#mf15a29e769" x="393.34125" y="183.532529" style="stroke: #000000; stroke-width: 0.8"/>
      </g>
     </g>
     <g id="text_29">
      <!-- 1.6 -->
      <g transform="translate(370.438125 187.331748) scale(0.1 -0.1)">
       <use xlink:href="#DejaVuSans-31"/>
       <use xlink:href="#DejaVuSans-2e" transform="translate(63.623047 0)"/>
       <use xlink:href="#DejaVuSans-36" transform="translate(95.410156 0)"/>
      </g>
     </g>
    </g>
    <g id="ytick_14">
     <g id="line2d_51">
      <path d="M 393.34125 161.036447 
L 705.17125 161.036447 
" clip-path="url(#p56385fac64)" style="fill: none; stroke-dasharray: 2.96,1.28; stroke-dashoffset: 0; stroke: #b0b0b0; stroke-opacity: 0.3; stroke-width: 0.8"/>
     </g>
     <g id="line2d_52">
      <g>
       <use xlink:href="#mf15a29e769" x="393.34125" y="161.036447" style="stroke: #000000; stroke-width: 0.8"/>
      </g>
     </g>
     <g id="text_30">
      <!-- 1.8 -->
      <g transform="translate(370.438125 164.835666) scale(0.1 -0.1)">
       <use xlink:href="#DejaVuSans-31"/>
       <use xlink:href="#DejaVuSans-2e" transform="translate(63.623047 0)"/>
       <use xlink:href="#DejaVuSans-38" transform="translate(95.410156 0)"/>
      </g>
     </g>
    </g>
    <g id="ytick_15">
     <g id="line2d_53">
      <path d="M 393.34125 138.540365 
L 705.17125 138.540365 
" clip-path="url(#p56385fac64)" style="fill: none; stroke-dasharray: 2.96,1.28; stroke-dashoffset: 0; stroke: #b0b0b0; stroke-opacity: 0.3; stroke-width: 0.8"/>
     </g>
     <g id="line2d_54">
      <g>
       <use xlink:href="#mf15a29e769" x="393.34125" y="138.540365" style="stroke: #000000; stroke-width: 0.8"/>
      </g>
     </g>
     <g id="text_31">
      <!-- 2.0 -->
      <g transform="translate(370.438125 142.339584) scale(0.1 -0.1)">
       <use xlink:href="#DejaVuSans-32"/>
       <use xlink:href="#DejaVuSans-2e" transform="translate(63.623047 0)"/>
       <use xlink:href="#DejaVuSans-30" transform="translate(95.410156 0)"/>
      </g>
     </g>
    </g>
    <g id="ytick_16">
     <g id="line2d_55">
      <path d="M 393.34125 116.044284 
L 705.17125 116.044284 
" clip-path="url(#p56385fac64)" style="fill: none; stroke-dasharray: 2.96,1.28; stroke-dashoffset: 0; stroke: #b0b0b0; stroke-opacity: 0.3; stroke-width: 0.8"/>
     </g>
     <g id="line2d_56">
      <g>
       <use xlink:href="#mf15a29e769" x="393.34125" y="116.044284" style="stroke: #000000; stroke-width: 0.8"/>
      </g>
     </g>
     <g id="text_32">
      <!-- 2.2 -->
      <g transform="translate(370.438125 119.843502) scale(0.1 -0.1)">
       <use xlink:href="#DejaVuSans-32"/>
       <use xlink:href="#DejaVuSans-2e" transform="translate(63.623047 0)"/>
       <use xlink:href="#DejaVuSans-32" transform="translate(95.410156 0)"/>
      </g>
     </g>
    </g>
    <g id="ytick_17">
     <g id="line2d_57">
      <path d="M 393.34125 93.548202 
L 705.17125 93.548202 
" clip-path="url(#p56385fac64)" style="fill: none; stroke-dasharray: 2.96,1.28; stroke-dashoffset: 0; stroke: #b0b0b0; stroke-opacity: 0.3; stroke-width: 0.8"/>
     </g>
     <g id="line2d_58">
      <g>
       <use xlink:href="#mf15a29e769" x="393.34125" y="93.548202" style="stroke: #000000; stroke-width: 0.8"/>
      </g>
     </g>
     <g id="text_33">
      <!-- 2.4 -->
      <g transform="translate(370.438125 97.34742) scale(0.1 -0.1)">
       <use xlink:href="#DejaVuSans-32"/>
       <use xlink:href="#DejaVuSans-2e" transform="translate(63.623047 0)"/>
       <use xlink:href="#DejaVuSans-34" transform="translate(95.410156 0)"/>
      </g>
     </g>
    </g>
    <g id="ytick_18">
     <g id="line2d_59">
      <path d="M 393.34125 71.05212 
L 705.17125 71.05212 
" clip-path="url(#p56385fac64)" style="fill: none; stroke-dasharray: 2.96,1.28; stroke-dashoffset: 0; stroke: #b0b0b0; stroke-opacity: 0.3; stroke-width: 0.8"/>
     </g>
     <g id="line2d_60">
      <g>
       <use xlink:href="#mf15a29e769" x="393.34125" y="71.05212" style="stroke: #000000; stroke-width: 0.8"/>
      </g>
     </g>
     <g id="text_34">
      <!-- 2.6 -->
      <g transform="translate(370.438125 74.851339) scale(0.1 -0.1)">
       <use xlink:href="#DejaVuSans-32"/>
       <use xlink:href="#DejaVuSans-2e" transform="translate(63.623047 0)"/>
       <use xlink:href="#DejaVuSans-36" transform="translate(95.410156 0)"/>
      </g>
     </g>
    </g>
   </g>
   <g id="line2d_61">
    <path d="M 432.32 159.804243 
" clip-path="url(#p56385fac64)" style="fill: none; stroke: #9c27b0; stroke-opacity: 0.7; stroke-width: 2; stroke-linecap: square"/>
    <g clip-path="url(#p56385fac64)">
     <use xlink:href="#m7e7399386b" x="432.32" y="159.804243" style="fill: #9c27b0; fill-opacity: 0.7; stroke: #9c27b0; stroke-opacity: 0.7; stroke-linejoin: miter"/>
    </g>
   </g>
   <g id="line2d_62">
    <path d="M 432.32 219.306662 
L 510.2775 156.948912 
" clip-path="url(#p56385fac64)" style="fill: none; stroke: #2196f3; stroke-opacity: 0.7; stroke-width: 2; stroke-linecap: square"/>
    <g clip-path="url(#p56385fac64)">
     <use xlink:href="#m69e56ad6bb" x="432.32" y="219.306662" style="fill: #2196f3; fill-opacity: 0.7; stroke: #2196f3; stroke-opacity: 0.7"/>
     <use xlink:href="#m69e56ad6bb" x="510.2775" y="156.948912" style="fill: #2196f3; fill-opacity: 0.7; stroke: #2196f3; stroke-opacity: 0.7"/>
    </g>
   </g>
   <g id="line2d_63">
    <path d="M 432.32 230.331146 
L 510.2775 202.000802 
L 588.235 179.725573 
" clip-path="url(#p56385fac64)" style="fill: none; stroke: #ff9800; stroke-opacity: 0.7; stroke-width: 2; stroke-linecap: square"/>
    <g clip-path="url(#p56385fac64)">
     <use xlink:href="#m0258394df8" x="432.32" y="230.331146" style="fill: #ff9800; fill-opacity: 0.7; stroke: #ff9800; stroke-opacity: 0.7; stroke-linejoin: miter"/>
     <use xlink:href="#m0258394df8" x="510.2775" y="202.000802" style="fill: #ff9800; fill-opacity: 0.7; stroke: #ff9800; stroke-opacity: 0.7; stroke-linejoin: miter"/>
     <use xlink:href="#m0258394df8" x="588.235" y="179.725573" style="fill: #ff9800; fill-opacity: 0.7; stroke: #ff9800; stroke-opacity: 0.7; stroke-linejoin: miter"/>
    </g>
   </g>
   <g id="line2d_64">
    <path d="M 432.32 239.999939 
L 510.2775 214.613 
L 588.235 216.657015 
L 666.1925 121.24411 
" clip-path="url(#p56385fac64)" style="fill: none; stroke: #4caf50; stroke-opacity: 0.7; stroke-width: 2; stroke-linecap: square"/>
    <g clip-path="url(#p56385fac64)">
     <use xlink:href="#m0a22596d50" x="432.32" y="239.999939" style="fill: #4caf50; fill-opacity: 0.7; stroke: #4caf50; stroke-opacity: 0.7; stroke-linejoin: miter"/>
     <use xlink:href="#m0a22596d50" x="510.2775" y="214.613" style="fill: #4caf50; fill-opacity: 0.7; stroke: #4caf50; stroke-opacity: 0.7; stroke-linejoin: miter"/>
     <use xlink:href="#m0a22596d50" x="588.235" y="216.657015" style="fill: #4caf50; fill-opacity: 0.7; stroke: #4caf50; stroke-opacity: 0.7; stroke-linejoin: miter"/>
     <use xlink:href="#m0a22596d50" x="666.1925" y="121.24411" style="fill: #4caf50; fill-opacity: 0.7; stroke: #4caf50; stroke-opacity: 0.7; stroke-linejoin: miter"/>
    </g>
   </g>
   <g id="patch_7">
    <path d="M 393.34125 256.872 
L 393.34125 59.392 
" style="fill: none; stroke: #bbbbbb; stroke-width: 0.8; stroke-linejoin: miter; stroke-linecap: square"/>
   </g>
   <g id="patch_8">
    <path d="M 393.34125 256.872 
L 705.17125 256.872 
" style="fill: none; stroke: #bbbbbb; stroke-width: 0.8; stroke-linejoin: miter; stroke-linecap: square"/>
   </g>
   <g id="text_35">
    <!-- Right Side ($R_n^k$) -->
    <g style="fill: #333333" transform="translate(499.51625 49.392) scale(0.12 -0.12)">
     <defs>
      <path id="DejaVuSans-Bold-52" d="M 2297 2597 
Q 2675 2597 2839 2737 
Q 3003 2878 3003 3200 
Q 3003 3519 2839 3656 
Q 2675 3794 2297 3794 
L 1791 3794 
L 1791 2597 
L 2297 2597 
z
M 1791 1766 
L 1791 0 
L 588 0 
L 588 4666 
L 2425 4666 
Q 3347 4666 3776 4356 
Q 4206 4047 4206 3378 
Q 4206 2916 3982 2619 
Q 3759 2322 3309 2181 
Q 3556 2125 3751 1926 
Q 3947 1728 4147 1325 
L 4800 0 
L 3519 0 
L 2950 1159 
Q 2778 1509 2601 1637 
Q 2425 1766 2131 1766 
L 1791 1766 
z
" transform="scale(0.015625)"/>
      <path id="DejaVuSans-Bold-67" d="M 2919 594 
Q 2688 288 2409 144 
Q 2131 0 1766 0 
Q 1125 0 706 504 
Q 288 1009 288 1791 
Q 288 2575 706 3076 
Q 1125 3578 1766 3578 
Q 2131 3578 2409 3434 
Q 2688 3291 2919 2981 
L 2919 3500 
L 4044 3500 
L 4044 353 
Q 4044 -491 3511 -936 
Q 2978 -1381 1966 -1381 
Q 1638 -1381 1331 -1331 
Q 1025 -1281 716 -1178 
L 716 -306 
Q 1009 -475 1290 -558 
Q 1572 -641 1856 -641 
Q 2406 -641 2662 -400 
Q 2919 -159 2919 353 
L 2919 594 
z
M 2181 2772 
Q 1834 2772 1640 2515 
Q 1447 2259 1447 1791 
Q 1447 1309 1634 1061 
Q 1822 813 2181 813 
Q 2531 813 2725 1069 
Q 2919 1325 2919 1791 
Q 2919 2259 2725 2515 
Q 2531 2772 2181 2772 
z
" transform="scale(0.015625)"/>
      <path id="DejaVuSans-Bold-68" d="M 4056 2131 
L 4056 0 
L 2931 0 
L 2931 347 
L 2931 1625 
Q 2931 2084 2911 2256 
Q 2891 2428 2841 2509 
Q 2775 2619 2662 2680 
Q 2550 2741 2406 2741 
Q 2056 2741 1856 2470 
Q 1656 2200 1656 1722 
L 1656 0 
L 538 0 
L 538 4863 
L 1656 4863 
L 1656 2988 
Q 1909 3294 2193 3439 
Q 2478 3584 2822 3584 
Q 3428 3584 3742 3212 
Q 4056 2841 4056 2131 
z
" transform="scale(0.015625)"/>
      <path id="DejaVuSans-Oblique-52" d="M 1613 4147 
L 1294 2491 
L 2106 2491 
Q 2584 2491 2879 2755 
Q 3175 3019 3175 3444 
Q 3175 3784 2976 3965 
Q 2778 4147 2406 4147 
L 1613 4147 
z
M 2772 2241 
Q 2972 2194 3105 2009 
Q 3238 1825 3413 1275 
L 3809 0 
L 3144 0 
L 2778 1197 
Q 2638 1659 2453 1815 
Q 2269 1972 1888 1972 
L 1191 1972 
L 806 0 
L 172 0 
L 1081 4666 
L 2503 4666 
Q 3150 4666 3495 4373 
Q 3841 4081 3841 3531 
Q 3841 3044 3547 2687 
Q 3253 2331 2772 2241 
z
" transform="scale(0.015625)"/>
     </defs>
     <use xlink:href="#DejaVuSans-Bold-52" transform="translate(0 0.529687)"/>
     <use xlink:href="#DejaVuSans-Bold-69" transform="translate(77.001953 0.529687)"/>
     <use xlink:href="#DejaVuSans-Bold-67" transform="translate(111.279297 0.529687)"/>
     <use xlink:href="#DejaVuSans-Bold-68" transform="translate(182.861328 0.529687)"/>
     <use xlink:href="#DejaVuSans-Bold-74" transform="translate(254.052734 0.529687)"/>
     <use xlink:href="#DejaVuSans-Bold-20" transform="translate(301.855469 0.529687)"/>
     <use xlink:href="#DejaVuSans-Bold-53" transform="translate(336.669922 0.529687)"/>
     <use xlink:href="#DejaVuSans-Bold-69" transform="translate(408.691406 0.529687)"/>
     <use xlink:href="#DejaVuSans-Bold-64" transform="translate(442.96875 0.529687)"/>
     <use xlink:href="#DejaVuSans-Bold-65" transform="translate(514.550781 0.529687)"/>
     <use xlink:href="#DejaVuSans-Bold-20" transform="translate(582.373047 0.529687)"/>
     <use xlink:href="#DejaVuSans-Bold-28" transform="translate(617.1875 0.529687)"/>
     <use xlink:href="#DejaVuSans-Oblique-52" transform="translate(662.890625 0.529687)"/>
     <use xlink:href="#DejaVuSans-Oblique-6b" transform="translate(739.389818 38.810938) scale(0.7)"/>
     <use xlink:href="#DejaVuSans-Oblique-6e" transform="translate(732.373047 -26.814063) scale(0.7)"/>
     <use xlink:href="#DejaVuSans-Bold-29" transform="translate(782.661302 0.529687)"/>
    </g>
   </g>
   <g id="legend_2">
    <g id="patch_9">
     <path d="M 400.34125 126.1045 
L 459.777187 126.1045 
Q 461.777187 126.1045 461.777187 124.1045 
L 461.777187 66.392 
Q 461.777187 64.392 459.777187 64.392 
L 400.34125 64.392 
Q 398.34125 64.392 398.34125 66.392 
L 398.34125 124.1045 
Q 398.34125 126.1045 400.34125 126.1045 
z
" style="fill: #ffffff; opacity: 0.8; stroke: #eeeeee; stroke-linejoin: miter"/>
    </g>
    <g id="line2d_65">
     <path d="M 402.34125 72.490438 
L 412.34125 72.490438 
L 422.34125 72.490438 
" style="fill: none; stroke: #9c27b0; stroke-opacity: 0.7; stroke-width: 2; stroke-linecap: square"/>
     <g>
      <use xlink:href="#m7e7399386b" x="412.34125" y="72.490438" style="fill: #9c27b0; fill-opacity: 0.7; stroke: #9c27b0; stroke-opacity: 0.7; stroke-linejoin: miter"/>
     </g>
    </g>
    <g id="text_36">
     <!-- n = 1 -->
     <g transform="translate(430.34125 75.990438) scale(0.1 -0.1)">
      <use xlink:href="#DejaVuSans-6e"/>
      <use xlink:href="#DejaVuSans-20" transform="translate(63.378906 0)"/>
      <use xlink:href="#DejaVuSans-3d" transform="translate(95.166016 0)"/>
      <use xlink:href="#DejaVuSans-20" transform="translate(178.955078 0)"/>
      <use xlink:href="#DejaVuSans-31" transform="translate(210.742188 0)"/>
     </g>
    </g>
    <g id="line2d_66">
     <path d="M 402.34125 87.168563 
L 412.34125 87.168563 
L 422.34125 87.168563 
" style="fill: none; stroke: #2196f3; stroke-opacity: 0.7; stroke-width: 2; stroke-linecap: square"/>
     <g>
      <use xlink:href="#m69e56ad6bb" x="412.34125" y="87.168563" style="fill: #2196f3; fill-opacity: 0.7; stroke: #2196f3; stroke-opacity: 0.7"/>
     </g>
    </g>
    <g id="text_37">
     <!-- n = 2 -->
     <g transform="translate(430.34125 90.668563) scale(0.1 -0.1)">
      <use xlink:href="#DejaVuSans-6e"/>
      <use xlink:href="#DejaVuSans-20" transform="translate(63.378906 0)"/>
      <use xlink:href="#DejaVuSans-3d" transform="translate(95.166016 0)"/>
      <use xlink:href="#DejaVuSans-20" transform="translate(178.955078 0)"/>
      <use xlink:href="#DejaVuSans-32" transform="translate(210.742188 0)"/>
     </g>
    </g>
    <g id="line2d_67">
     <path d="M 402.34125 101.846688 
L 412.34125 101.846688 
L 422.34125 101.846688 
" style="fill: none; stroke: #ff9800; stroke-opacity: 0.7; stroke-width: 2; stroke-linecap: square"/>
     <g>
      <use xlink:href="#m0258394df8" x="412.34125" y="101.846688" style="fill: #ff9800; fill-opacity: 0.7; stroke: #ff9800; stroke-opacity: 0.7; stroke-linejoin: miter"/>
     </g>
    </g>
    <g id="text_38">
     <!-- n = 3 -->
     <g transform="translate(430.34125 105.346688) scale(0.1 -0.1)">
      <use xlink:href="#DejaVuSans-6e"/>
      <use xlink:href="#DejaVuSans-20" transform="translate(63.378906 0)"/>
      <use xlink:href="#DejaVuSans-3d" transform="translate(95.166016 0)"/>
      <use xlink:href="#DejaVuSans-20" transform="translate(178.955078 0)"/>
      <use xlink:href="#DejaVuSans-33" transform="translate(210.742188 0)"/>
     </g>
    </g>
    <g id="line2d_68">
     <path d="M 402.34125 116.524813 
L 412.34125 116.524813 
L 422.34125 116.524813 
" style="fill: none; stroke: #4caf50; stroke-opacity: 0.7; stroke-width: 2; stroke-linecap: square"/>
     <g>
      <use xlink:href="#m0a22596d50" x="412.34125" y="116.524813" style="fill: #4caf50; fill-opacity: 0.7; stroke: #4caf50; stroke-opacity: 0.7; stroke-linejoin: miter"/>
     </g>
    </g>
    <g id="text_39">
     <!-- n = 4 -->
     <g transform="translate(430.34125 120.024813) scale(0.1 -0.1)">
      <use xlink:href="#DejaVuSans-6e"/>
      <use xlink:href="#DejaVuSans-20" transform="translate(63.378906 0)"/>
      <use xlink:href="#DejaVuSans-3d" transform="translate(95.166016 0)"/>
      <use xlink:href="#DejaVuSans-20" transform="translate(178.955078 0)"/>
      <use xlink:href="#DejaVuSans-34" transform="translate(210.742188 0)"/>
     </g>
    </g>
   </g>
  </g>
  <g id="text_40">
   <!-- Zaar (say) - Outer Effect Curves -->
   <g style="fill: #111111" transform="translate(239.581641 17.077969) scale(0.13 -0.13)">
    <defs>
     <path id="DejaVuSans-Bold-5a" d="M 359 4666 
L 4281 4666 
L 4281 3938 
L 1778 909 
L 4353 909 
L 4353 0 
L 288 0 
L 288 728 
L 2791 3756 
L 359 3756 
L 359 4666 
z
" transform="scale(0.015625)"/>
     <path id="DejaVuSans-Bold-61" d="M 2106 1575 
Q 1756 1575 1579 1456 
Q 1403 1338 1403 1106 
Q 1403 894 1545 773 
Q 1688 653 1941 653 
Q 2256 653 2472 879 
Q 2688 1106 2688 1447 
L 2688 1575 
L 2106 1575 
z
M 3816 1997 
L 3816 0 
L 2688 0 
L 2688 519 
Q 2463 200 2181 54 
Q 1900 -91 1497 -91 
Q 953 -91 614 226 
Q 275 544 275 1050 
Q 275 1666 698 1953 
Q 1122 2241 2028 2241 
L 2688 2241 
L 2688 2328 
Q 2688 2594 2478 2717 
Q 2269 2841 1825 2841 
Q 1466 2841 1156 2769 
Q 847 2697 581 2553 
L 581 3406 
Q 941 3494 1303 3539 
Q 1666 3584 2028 3584 
Q 2975 3584 3395 3211 
Q 3816 2838 3816 1997 
z
" transform="scale(0.015625)"/>
     <path id="DejaVuSans-Bold-72" d="M 3138 2547 
Q 2991 2616 2845 2648 
Q 2700 2681 2553 2681 
Q 2122 2681 1889 2404 
Q 1656 2128 1656 1613 
L 1656 0 
L 538 0 
L 538 3500 
L 1656 3500 
L 1656 2925 
Q 1872 3269 2151 3426 
Q 2431 3584 2822 3584 
Q 2878 3584 2943 3579 
Q 3009 3575 3134 3559 
L 3138 2547 
z
" transform="scale(0.015625)"/>
     <path id="DejaVuSans-Bold-73" d="M 3272 3391 
L 3272 2541 
Q 2913 2691 2578 2766 
Q 2244 2841 1947 2841 
Q 1628 2841 1473 2761 
Q 1319 2681 1319 2516 
Q 1319 2381 1436 2309 
Q 1553 2238 1856 2203 
L 2053 2175 
Q 2913 2066 3209 1816 
Q 3506 1566 3506 1031 
Q 3506 472 3093 190 
Q 2681 -91 1863 -91 
Q 1516 -91 1145 -36 
Q 775 19 384 128 
L 384 978 
Q 719 816 1070 734 
Q 1422 653 1784 653 
Q 2113 653 2278 743 
Q 2444 834 2444 1013 
Q 2444 1163 2330 1236 
Q 2216 1309 1875 1350 
L 1678 1375 
Q 931 1469 631 1722 
Q 331 1975 331 2491 
Q 331 3047 712 3315 
Q 1094 3584 1881 3584 
Q 2191 3584 2531 3537 
Q 2872 3491 3272 3391 
z
" transform="scale(0.015625)"/>
     <path id="DejaVuSans-Bold-79" d="M 78 3500 
L 1197 3500 
L 2138 1125 
L 2938 3500 
L 4056 3500 
L 2584 -331 
Q 2363 -916 2067 -1148 
Q 1772 -1381 1288 -1381 
L 641 -1381 
L 641 -647 
L 991 -647 
Q 1275 -647 1404 -556 
Q 1534 -466 1606 -231 
L 1638 -134 
L 78 3500 
z
" transform="scale(0.015625)"/>
     <path id="DejaVuSans-Bold-2d" d="M 347 2297 
L 2309 2297 
L 2309 1388 
L 347 1388 
L 347 2297 
z
" transform="scale(0.015625)"/>
     <path id="DejaVuSans-Bold-4f" d="M 2719 3878 
Q 2169 3878 1866 3472 
Q 1563 3066 1563 2328 
Q 1563 1594 1866 1187 
Q 2169 781 2719 781 
Q 3272 781 3575 1187 
Q 3878 1594 3878 2328 
Q 3878 3066 3575 3472 
Q 3272 3878 2719 3878 
z
M 2719 4750 
Q 3844 4750 4481 4106 
Q 5119 3463 5119 2328 
Q 5119 1197 4481 553 
Q 3844 -91 2719 -91 
Q 1597 -91 958 553 
Q 319 1197 319 2328 
Q 319 3463 958 4106 
Q 1597 4750 2719 4750 
z
" transform="scale(0.015625)"/>
     <path id="DejaVuSans-Bold-75" d="M 500 1363 
L 500 3500 
L 1625 3500 
L 1625 3150 
Q 1625 2866 1622 2436 
Q 1619 2006 1619 1863 
Q 1619 1441 1641 1255 
Q 1663 1069 1716 984 
Q 1784 875 1895 815 
Q 2006 756 2150 756 
Q 2500 756 2700 1025 
Q 2900 1294 2900 1772 
L 2900 3500 
L 4019 3500 
L 4019 0 
L 2900 0 
L 2900 506 
Q 2647 200 2364 54 
Q 2081 -91 1741 -91 
Q 1134 -91 817 281 
Q 500 653 500 1363 
z
" transform="scale(0.015625)"/>
     <path id="DejaVuSans-Bold-45" d="M 588 4666 
L 3834 4666 
L 3834 3756 
L 1791 3756 
L 1791 2888 
L 3713 2888 
L 3713 1978 
L 1791 1978 
L 1791 909 
L 3903 909 
L 3903 0 
L 588 0 
L 588 4666 
z
" transform="scale(0.015625)"/>
     <path id="DejaVuSans-Bold-63" d="M 3366 3391 
L 3366 2478 
Q 3138 2634 2908 2709 
Q 2678 2784 2431 2784 
Q 1963 2784 1702 2511 
Q 1441 2238 1441 1747 
Q 1441 1256 1702 982 
Q 1963 709 2431 709 
Q 2694 709 2930 787 
Q 3166 866 3366 1019 
L 3366 103 
Q 3103 6 2833 -42 
Q 2563 -91 2291 -91 
Q 1344 -91 809 395 
Q 275 881 275 1747 
Q 275 2613 809 3098 
Q 1344 3584 2291 3584 
Q 2566 3584 2833 3536 
Q 3100 3488 3366 3391 
z
" transform="scale(0.015625)"/>
     <path id="DejaVuSans-Bold-43" d="M 4288 256 
Q 3956 84 3597 -3 
Q 3238 -91 2847 -91 
Q 1681 -91 1000 561 
Q 319 1213 319 2328 
Q 319 3447 1000 4098 
Q 1681 4750 2847 4750 
Q 3238 4750 3597 4662 
Q 3956 4575 4288 4403 
L 4288 3438 
Q 3953 3666 3628 3772 
Q 3303 3878 2944 3878 
Q 2300 3878 1931 3465 
Q 1563 3053 1563 2328 
Q 1563 1606 1931 1193 
Q 2300 781 2944 781 
Q 3303 781 3628 887 
Q 3953 994 4288 1222 
L 4288 256 
z
" transform="scale(0.015625)"/>
     <path id="DejaVuSans-Bold-76" d="M 97 3500 
L 1216 3500 
L 2088 1081 
L 2956 3500 
L 4078 3500 
L 2700 0 
L 1472 0 
L 97 3500 
z
" transform="scale(0.015625)"/>
    </defs>
    <use xlink:href="#DejaVuSans-Bold-5a"/>
    <use xlink:href="#DejaVuSans-Bold-61" transform="translate(72.509766 0)"/>
    <use xlink:href="#DejaVuSans-Bold-61" transform="translate(139.990234 0)"/>
    <use xlink:href="#DejaVuSans-Bold-72" transform="translate(207.470703 0)"/>
    <use xlink:href="#DejaVuSans-Bold-20" transform="translate(256.787109 0)"/>
    <use xlink:href="#DejaVuSans-Bold-28" transform="translate(291.601562 0)"/>
    <use xlink:href="#DejaVuSans-Bold-73" transform="translate(337.304688 0)"/>
    <use xlink:href="#DejaVuSans-Bold-61" transform="translate(396.826172 0)"/>
    <use xlink:href="#DejaVuSans-Bold-79" transform="translate(461.181641 0)"/>
    <use xlink:href="#DejaVuSans-Bold-29" transform="translate(526.367188 0)"/>
    <use xlink:href="#DejaVuSans-Bold-20" transform="translate(572.070312 0)"/>
    <use xlink:href="#DejaVuSans-Bold-2d" transform="translate(606.884766 0)"/>
    <use xlink:href="#DejaVuSans-Bold-20" transform="translate(648.388672 0)"/>
    <use xlink:href="#DejaVuSans-Bold-4f" transform="translate(683.203125 0)"/>
    <use xlink:href="#DejaVuSans-Bold-75" transform="translate(768.212891 0)"/>
    <use xlink:href="#DejaVuSans-Bold-74" transform="translate(839.404297 0)"/>
    <use xlink:href="#DejaVuSans-Bold-65" transform="translate(887.207031 0)"/>
    <use xlink:href="#DejaVuSans-Bold-72" transform="translate(955.029297 0)"/>
    <use xlink:href="#DejaVuSans-Bold-20" transform="translate(1004.345703 0)"/>
    <use xlink:href="#DejaVuSans-Bold-45" transform="translate(1039.160156 0)"/>
    <use xlink:href="#DejaVuSans-Bold-66" transform="translate(1107.470703 0)"/>
    <use xlink:href="#DejaVuSans-Bold-66" transform="translate(1150.976562 0)"/>
    <use xlink:href="#DejaVuSans-Bold-65" transform="translate(1194.482422 0)"/>
    <use xlink:href="#DejaVuSans-Bold-63" transform="translate(1262.304688 0)"/>
    <use xlink:href="#DejaVuSans-Bold-74" transform="translate(1321.582031 0)"/>
    <use xlink:href="#DejaVuSans-Bold-20" transform="translate(1369.384766 0)"/>
    <use xlink:href="#DejaVuSans-Bold-43" transform="translate(1404.199219 0)"/>
    <use xlink:href="#DejaVuSans-Bold-75" transform="translate(1477.587891 0)"/>
    <use xlink:href="#DejaVuSans-Bold-72" transform="translate(1548.779297 0)"/>
    <use xlink:href="#DejaVuSans-Bold-76" transform="translate(1598.095703 0)"/>
    <use xlink:href="#DejaVuSans-Bold-65" transform="translate(1663.28125 0)"/>
    <use xlink:href="#DejaVuSans-Bold-73" transform="translate(1731.103516 0)"/>
   </g>
  </g>
 </g>
 <defs>
  <clipPath id="p3d69cedf79">
   <rect x="47.78125" y="59.392" width="311.83" height="197.48"/>
  </clipPath>
  <clipPath id="p56385fac64">
   <rect x="393.34125" y="59.392" width="311.83" height="197.48"/>
  </clipPath>
 </defs>
</svg>
